<mxfile host="Electron" modified="2023-08-04T14:37:50.847Z" agent="Mozilla/5.0 (Windows NT 10.0; Win64; x64) AppleWebKit/537.36 (KHTML, like Gecko) draw.io/21.6.5 Chrome/114.0.5735.243 Electron/25.3.1 Safari/537.36" etag="mqVShuIvwqnDY9QqrubO" version="21.6.5" type="device">
  <diagram id="2PkcdSkesrMYe-hE7Xmj" name="Page-1">
    <mxGraphModel dx="1050" dy="629" grid="0" gridSize="10" guides="1" tooltips="1" connect="1" arrows="1" fold="1" page="1" pageScale="1" pageWidth="827" pageHeight="1169" math="0" shadow="0">
      <root>
        <mxCell id="0" />
        <mxCell id="1" parent="0" />
        <mxCell id="QVPC673FPpkqxWNrho3z-9" value="" style="shape=image;verticalLabelPosition=bottom;labelBackgroundColor=default;verticalAlign=top;aspect=fixed;imageAspect=0;image=data:image/png,iVBORw0KGgoAAAANSUhEUgAABS0AAAH+CAYAAAB5kCvtAAAgAElEQVR4nOzda3RU15kn/P/e59RNJSEkAUIC4YvAxjY2TmyStDHEjWOIc3Obnk6cTuxO3DMZO5m+TJbT653JrIk/ZNb0dOjMmu5OcNLTSTpOOs4NhsSObZI4CRjfiB3LwVcksAFJSCAJSVWq2zlnvx/2OaWSEFBSnbr/f2vZgKg65xQ2W/t59t7PI5RSCkRERJXG+/YkxMxfz+b9/lzvF+Ls68y+PgClHAghMPHGQZw++AigHEBKQCkopSDOdY9zERJQDmQoitZr/hBNa66DkOb8rkFEBOWOZXKBb88Z/7wxccbveb8vkRoZQP9jD2D89ecgjQCUndGvd8czQAD5DIXZ++h7mtFFWPVH/xmLLnvnwj4DEdUv5WTHPyedgGNnIM41Hp41TXQgAmFIM5gz3olZ88rpMXDy8G9x4pGvID05CiEkFBxIMwhl2xDScMfBvB8c3oApDBOZ2BjarnsvVv3RZ+dxDSICAEZQRERUmYTImSCKcycnzyc3cZkbsGcTlnpSKYTExOGDOPHY15Ea7YeUJpRt5SQKVP73z00wKIXY0R43YH/H/J+fiOqbN544Nqxk7OzEY/Z1Z39BCAkj0pQzls5+33Swnh47iROPfAWxoz0ww1Eox4IRWewG61K/cj77HAQAR0FIiczkGM68vJ9JSyKaPyFhJSYw+sJeTJ14HXYqPq+3m9HFWHzljVh02QZ38VjNXLQG9Byw93mceHQnMpOjULaFcPvFWLbxTxBY1AY49twLP+fjvnZq4DCG9n8f0gzCmpqY17MTkcakJRERVSZvdV0p2Kk4HCsNIfNdXVeQwTBkIHyeQHt6B9L4a8+g/2c7YcXPwAhEAAEYkUYo24IwTCilCgjYR9yAnUlLIponITE1cBgjv/0ZUqMnoex0nklLvbunoXM12q57H0JtnXpMzY5jQu8ilwZSIwM48egDiL35EiAERCCE5Zv/DA0rLpt+vVJuzjOvrZaAEEgMHsHgE9+GNAOwpiYX9vmJqK4pO4NTT+3C0L4f6N2OAlBOfjsehRBQysFE7wtY9aG/RPMVN+j3uvNLoRSEYWKy7wWcePifkJkYBaRAqLUDndv+A5ouvbbwD+CO18q2zj2HJaLzYtKSiIgqk5CwYmM4ffARTPW/ATuVgA6G53jt7IBdAGZDMxZfuQmLr7wBwgzqSaoz/X4FASEExl99Cice+xrs+Bk4dgYNnZehfdOHEVi0BMqx4B1xnM9OTyEl4sdfxclffxeCATsRLVDmzDD6H30A8bdezo5j+VZ2EkIiduRFpMaGsOpDf+kuxNh6DFQKwgjoHZY/+yomj7wIIxCCMEx0/OHH0Xb9rcgvQXneJ9BJA9vSyQYionlKj53EmUP7IQwDMtSgj4bnOQYqpQChYE+N48yrT2HR5Xq3t5CGTl4Kgcne53H84a8gM34aEALB5mXo+tBfoXHVVVCOM10eSAjAcQDplr648M2zuzNF9vWFjqlE9YlJSyIiqkjKSmPowA9x6sAuHaxD5b267h2HjB3pAQTQcvVN7m5J94ikG7CPv/o0TjzyVViJSUAIhNsvxopbP4Vo15UFP7+TTumf2DaEwdV1Ipq/2LFDmOo/DBmO6t3jRiDPgF3BsTJwMknE3uxBcqQf0ZVrpxdfhEBqdAD9j3wVk30vQJohQEp0bvv3aFm/BXCUPjaZrZAxqxbceW+dU5ZjIWU9iIhcdmoKdiYJAAi3rUD7uz8KI9RwwcUbISWSp45h8BffhjACsKYm4KSTkMEQAAFIAxO9z6P/0QeQmRwBpERwcTtWfuAzaLxoHZRyAGUDwpwex+azUzJ37PPex04iRAvCpCUREVWk1NhJjL/6NIQZgBFuuMBR75mUY8Ox07CnYhh//VksvupG6IDbyCYuz7xyAP2PPgBragIKCpGlF2HVh/4akY5uKMeeLvTu1YObdyMMBQHvPQzciWj+7EQMgAJsCy3r3o22t92Sx05LAeXYOPXUjzH28j4YZghWfBxeLTdhmEidPoH+x76OyaMvQZohCDOAzlvuRus1W6CUyO5QAtwdkvNJPs54LRdsiKgASu8aV1YGMhhGdMXlMBoW5fVW3TzHhrLSsxrx6F3oJx75J1ixMwCAYPNSrHzfPWi6ZL2uaQ4FIU1YiQnEj70CZWUAw9C7LfMkDBOJk0fchmYCzFoSLQyTlkREVJGcdAKOlQYUEGpbic73fAIyHL1g4lJIicTQm+h/9OsQhgk7Gder64EwhNST1bGXn8TA3v8LOzEJQCHSfgm63v8ZRDq63bpvznTXXH3RhX0IkecxIiKiOSgoN2eZQiDajHD7JXm+UUEGwnDSKRhmWI9CSgfR6bGT6H/0AUwe+R2EGYIMBLH8po+j7e1b3R3pNoQ0YaeTmHjjOVjxMYjsDs88j6ZLA6nRQfcXIu8j7URUL1ROg+3ZTRJzv55Th9exoRz77NfORQhdDsO7mNvYUUgDk0d+hxMPfwVW7AyUYyO4uB1dH/xLNF5yjb6+EHoMTExi8JffxthLT+hrSKnXcvLhJSndeaCy0jDzTLYS0UxMWhIRUcUSELoBjxlAeOmqvFfXnXQSytFHI71VceEmIc+88iT6H90JJ5WAchxE2i/Fyg98Gg0rLoeyM/q1RgDp8VOYPPxbOHbGXa2fx+q6NJE8fdxNfELX0iQi8swIzr2A3RtjvIUOvStShiIQTnC6g7d39PpchA7uhWnCCEchQ5HsTp/0mSGcePgrmHyzB8IMQkgDHbfcjbb1N0+/XZpQtoXhp36MUwd+pK8ljen8wgUJAA4gDAjDhGNlEGxekt+fCxHVB6XcZotOdkxTytGnXHJ2a4eWXoSu2/4aykojEF0MM+rOA/PY/R1pvxir/vhvoOwMAtHFkMEIJg7/Fv2P7kR6bFjXsGzpwMr334vGS67JjqtCStiJCZz81Xcx+ru9kGYQjpWGytgXuGMuke06rpRCuP0StFx784XfRkRnYdKSiIhKa85gXc3sTusG2DIY0UfDjYCuLzT7/XMRAkoBRigKZdsQgYD+ujRw5tBvcOLRr8FJp+DYFho6utH1ob9CZPml7uq6hJAGMhOn0f/YA5h4/Vl9pFyIee2XVNDHmYRh6ok2A3Yi8ng7Fr2A3a2zqxwHwsidmgssXnsDIstXQ0Ah0LxsRk3K8xGGiWUb/wQt62+GkCZCrR1IjZzAiZ/txGTfixBGANIMofOWT6J1/Xtyrgs4mZROWD69Sz+jUHBsa141KnU9uAwggMaLr0bb27fN+4+JiGqZt/gichqMKaRG+5E8fWL6GLYQEIYJISWsxCTGXz84cwPmBW6hS/0IWFOTGHvxFxg68COkx4YhDAOBRW3o+sBn0HjJ+pyEpQE7GcPgr76L0889DBkIQimFxkuugdmwOO9KGcqb0zoKRqQJLdfchOjKK+b9p0REgFA8r0FERKXk1YfMrq7DXV3POY4NvVsyNXICjm3BCEURauvMuwOtk0m6k14bRiiKYEs7xn7/Gwz8/F9gJ+OAo9Cw8jKsfP+nEVnerRMGUBBCIn1mCAN7/wXjrz2lj1dmUvr55pG29I4XAUB05Vqs/MBn9H2IiICZ9dWgoJQet+JvHUJqdADZo5PScLvl6kUV3c02z3u4L1RK32PijYOYPPI7SCMAEQii8+Y/Q9t1t8LrJg4h4WTSOPX0Lgzt+777XA4Wrb4e4WUXudfM97PpRIQRacKiy96B8NKuPN9MRHXDXSxWytHHto/2YODxf0bq1DHojCP079uWPpoNCQVHJzTzagrm/UtASOkOqQE4VhrB5qXo+uBfTO+wVAqQBuxEDIO/ehAjzz8GIQ04mTSWbngf2m/6U8hg2J235nNvb47rQBiB6fkrm5MRzRuTlkREVFozvu2obFfvqf7DSAz25iT8xPSxbPd4jRuCX/gW0MfBlVvA3YqfwcgLj8OamgCgEFneja4P/gUiyy91dzpJQMDdYfl1nHnlAKQZgDACaL7yBgQa25B3ISM3YFfKgRlZhEWXvwPhJSvBgJ2IZshZ3FCOg6Enf4BTB36sF1ayizhKB+hS7xaCM5/jiTkdv4WAMIOQ0gCkgc5b7kbb27dOv04YcKw0hg/8CEP7f6CD9XQCretvxoqtfw7ZsEgvLOUzjuXsHoWU02M+g3UiyuUu3igF2MkY3vzh32Ky7wUY4SicdEI34HHHEn2CPGcsmUcKQ0gDynH0sGRlEG6/CCtvvRdNl66fccrGTkxi8Fffxejzj2bLbCy5/n1ov+ljMCON3sXy/XDwxkvl2Dk9gPJbfCeiaTweTkREpSXE9Cq5UhDSwNihJzHw+P9FZuKU+xodoCvHmq5v5K2E5yk7XZR6gmmEGgCl0NC5Gl0f+iu9c0g5bmANpM8Mof+xr2Pi9WchA0FAAe2bPowl7/qQXiXPd6I6V8CefzE4IqoXXlJSSEwNvI7Tz/4EjmNDhqJQdhrZhKNU7sZFBWEamF8HWneHkW1DZdJApBGdW/8cretv1kE8FIQRgMqkMPzULgzv/yGEEHDSCbRdewuWv+cTMBqa9XHvfMdAL7np1daEt5DEYJ2IcrinbYQUSI0OID3SDyMYgdmwCNHLNrgLzzklMWaMQ3meD89p5OPNz1qvey+aLlmf/bU+Eh7H4K++g5Hf/kyX6XBstL19G5ZvuQtGuCGnjFG+E7rp1wghAcnu4UQLxaQlERGVXk5XxczEaZx6ahcyEyMwwk1w0kl4DWz0irQ3Uc15Xz63UIAwjGxgbk1NounSa7HyffcivHSVbrrjrq6nx07qhOXhgxDSBIRAx5aPo+3690PKwAI+m3Af28k+LwN2IjqbDmxTI/1wMmkIYSDadTkaL77GPQoupsc9nflD/oGvmNG4Rzk2IssvxaK173LLXejrOJkkTj29B8P7HsoeQW9dfzOWv+cTCDS2uLuccq6V52cCpncVcc2GiObkjim6SoUuSRFqXYEVt94DGWrIP0d47hsgO2a6i8nCCGR/LQxT17D8xbcw8rufQ5hBqEwSbde/Hx1b7oIRjs4aixfwMNlxkyMh0UIwaUlERKXnrq5DCKQnTsGKjUEGQggsasPiK2/UycQZq+tq/sF6bpDvOIBhoPmKGxBe0pWt36YTloPo/9nXdMLSDEKYAbRv+giWbPgghGnm1ETK+8NlfxSSE1QiOocZCcDpDuINKy5D++Y7inhjlR1TlZXB8IEfY/jAjyHMAOxUAi1X34SOW+5GoLFF75R0d77zeDcRFVV2vgcIw4Q0g/7fwy1JpNyTPnYyjsEnHsTIC49DmAEoO4O2696Hji13wog05oyB4BhIVCZMWhIRUXlkV9cFFHQznmDzMiz9g9thhKPFu687YfV2WB5/5CuIHXkJIhAClMLyzXdgyTs/mK2BlA3YiYiKRHg7yR1L1z8rSk0JnaxUSjcdU7alj4Qf+BGgADuVQOv6Lejc+ucwo4vdYD2/buVERIXStcjdRjte93Bf229Mj6vCbbpz8tffxcjzj0KaQdjpJNqu24aOm/8MRqTR3WUuUZzxmIjyxaQlERGVnXAb1+hi5U4R7qCyOya91XUvYTl55EVIaUIIgeU3/xmWbHi/Tlgqh6vrRFQSXliuvLpp7m4j/0qgTV9ICANOJqW7hO//PiAlHCuNlqtvQuctd8OMLs4J1omISiPbcDG3LIYvspV13V9K2KkEBp/4tt5hKQ3Y6QSWbPggOrZ8HDLUMHOHJQQUFITjAGykQ1RyTFoSEVH5CQGhFABnelW9iKvrqZF+nPjZTsSO9Ogu4cLA8i0fx5IN79MF2Lm6TkSlpLebQ48304FyQUG7t9iicoN190j4M7swvP8HgNslvOXqm7Di1k/BiDRB2dZZHW6VbUEYBjgeElHxqFkjnnCHnELmgzn1JN2yGHZiMrvDUhj6SPiS69+Pjj/8GIxI03SzSGD6VBCng0Rlw6QlERGVnVIOlBes+7Wrcc6AXSI9OoDjP/1HxI+/kg3CO275JNrevm262+1Zq+s2IPktk4hKISdA93OXtxBwrDSGD/wIw0/+SO+wTCXQ+rZb0LHlTpgNzdlGFbNrCWebohERFY03xsxOUhY49rhdwgHAmprE0G/+TXcJN4NwMim0vW2r7hLeMHfCcvrnHAOJyoERGBERVYbZc0E/gvVs51wHEBLJU2+h/2dfQ/zYKxBSQJhBdL7nE2h92y1uUD5zRxLgrq7zOBARFZNX03LGFwrkHjFXbvdvJ53AqWf26BqWAJx0Ei3X3ISOLXchsKjNXbDJGetyO94yVieiaqMUvHmdUgpwLJw++DBOH3wE0gy4NSzfi46b74LJpjtEFYtJSyIiqgAiZ3LpA/douQIAx4EQAsnht3Di0a8h/tbvIaQBYQTQseUutL5tq95xqc5OWJ71cyKiapId1hTix17JJiyVY6Hl6ndjxXs/ldN0xy2JwTGPiGqBENlppRCAY9tIDr0J5VhQykTb27ehc8tdMBqadYNGlgUiqkissE1ERLXHO9Lo/tLJJHHq2T2IHfkdhBmCNEPo3Hq3rmHpdgmfM2FJRFStZiy+SDiZFJRScDJpNHW/bbrpDpATrPtZS5iIqIy8xo5eYx8pIcxA9gh4yzV/CCPa7L44d+6ndBdzIqoITFoSEVGNco9361aUcFIJd9XdRvtNH0Xrte8B3GNAQsgidS0nIioTNzAXOTV9va+HWjoRWLRk1ht0zTblWKV8SiIiAIDwe9H4rNrm7sKMkBCGCeXY+tduKQ2d3JT6Jf4+CREVgElLIiKqPTNW12V2hR1KQUgTkY7VEEZg5nvcxKWexBIRlY6AmLUz0oeLypllN4TQ9xFSQilbj3WzdyIJMbOuJRFRsajpnd2z+4bP9Zr5O6tYupsYdROVjp3zmpzXSjm9yENEZce/jUREVGY6iAYwc3JayETVm2zm7J7MJgWEgLLSmF5dF7MCdn5rJKISyBmf1OzxyI9T2tkxVLj30D9Vub8313jHEhlEVBIqOxYJCLea5Kx5WKHjkchdEHIb8nCeR1RV2IiHiIhKT7k1JIWAUo5bO0jM7NJdyER1VrAOZPca5fy+wFmZAU5kiagUvDHITVQKdweQUrpxmC+Jw1njmfDGV5VTw5eIqFyypXncZKJ7LlspB04mBRkIFZhkVNmZnhASykpDQOodljOaL/rxYYioWJi0JCKi0sqdKEJPJIXw1tjhU7AuZv1yOiHgzl79uxcR0Xx5Y49bd1I5tk5YShPpidOIv3UIAKAKGKMEcpOgEslTx9zxT07XrVQOF2uIqDxyTtQIw9QLOEYAqZF+HP/pP8Bb3J6xvjzfIdFLhioA0kDq1DEYoQbvNwt6fCIqDSYtiYiotNwgXDk6mFaOrbt3Gybs1BTix1+FEYy4RxkLCdgBpZSu32ZlYCUmIaUBQLndwjF9HJOIqJS8YF3q8SewqFXvhBQKk73PY7L3BegtR4U1CPOOnQu3tq+QBuDYMMKN2WQmEZH/Zi5Qn5PQ9cZDrZ2ItF+C8VefBgBMHn4eSgBwAGFIeDvT51N3XI97yC4MQSnIYAROJonQkpUIti7PKZUx389HRKXCpCUREZWeUtkukWbDIhjBBthT40iPDODY7i/PeN2Cb+GtoDsOhBkAHBvCDAJCQIbC+veYsCQiP+WOWUKce2FkxtcUGlZcjqbu6zD2+19BmsFsYC6kqX8NAI4Nx0rn/SjSDEIYBpRSsDNTABTgKAQXt2PRmg36zo49fWx8oeYapzm2EtWf2WOBmOtrOeNi9tQLYISjWL7pDtjJOFLDx4BASC9sA1C2pTt+C5HT9Tu/MUY51nQZDmlC2RYibZ1Y/u4/RXDxcncMlHlf73yfXUHp+umz/wxyXsOFIqL5E0oV1JKLiIhIyzdYn/EeB1AKJ/c9hJO//rfs2wB9tFEGQ+5RRhvKSk/XvrwAISWEGYQQAo5l6TpG0oCyLSy++t3o+sBnIIMNENKHnUYM2IkIyBm8Zv/9n3W2Maemb67U6CDGen6B5PAxHaBLifT4KSSGjgIQCC9bhVDL8rwWc5RSSA6/hfSZIQgjgIbOS2GEm2CEo2hdvwXRVVfqIRpCd8otRF5jPXe1E9W8PP+eK6XckkByekrn7qK0psaRHhuCUg6kNJAaHcDAL/4VVvwMIh2rsfwPP6aPd19gHBRSIDH0JgafeBB2MoZo1xVYduNHYARDCDS1Ibi4febzFlpHneMbUdFwpyURERVurmA9m7jEdB3J2YlN9+jO0nd8EEakCfFjL+tdmNKAnU5g6sTrcKwMzMYWNHSucTtKXiBgFwJ2YhJT/W/AsS0EF7Uh0tENpRQiyy9F29u3wgg36uLueZ5eysv5Jqyc0BLVPqXg2JnpI4nu33vl2DndcBUgzexO8+n3OggtXobl7/4YlLKzY+boC4+j//E+KDuD5tXXY9mmD1/4OYSAstLof+yfkRx+C2Y0iCXv+iMsWn29Hl8Nwy3P4cOOH6WglILKJCGkF1bMboSmXyMDocLvR0QVy0knETv+MlQmrRdDvKFAOdk5oAyGEV11JYQZwuxJmJASgaZWBJrapr8WCLlNG23IYAjRFWthRKL5PZC7i1xZFmQwgqaL1+kTN4BuxuONgT7MzzITI4ifeBVCGDPnle7nVu5ctvHiqwu+F1G9YdKSiIgKlw3WRU6y0gvWBQCpG0IYZvbXue81wlEsfccHsOT69+n3SonEYC/e/MH/hJWYRLB5NVa891MIRBe7uy3PTUgDseMv460f/E+oZBzhpV3o+sB/ggw1uJNor8abD0lEpXT3cyuti8grYK6AHcqBCIQLvx8RVaxMfBSDv/w2rKkJPR5AQCjlNtNRUJk0GjpXY9mNH4YIzh4PvJ2Xyg169Rip3IUfBT0u6uvmwQjoH5UDZeukqZBGtq6b8CtYFwKp08dx8tffhZNJQRgGAJlNUgilYKcSaOhai44tdxV2LyKqaJn4GZx45KvIjJ92Fyn0goUQMtsRPNq5Ghff8d8hm8Jz7JZ0x6Oc3eiOlZ6erymlF3XypCwLuiO5no86VgaGYUA53hjo7vYsdGFZCCQGe3Hs/31ZlySShh731fTikDU1geYrbmDSkmgBmLQkIqKCZeJjbrA+DpENltX0/NNKI9jSgY6bPgajYdFZHcThTh51I4q5j+oI09RBOy68O0hIQycTHQeOY+sA3k1Y6smvT93DhcDUiTcw/OQP3WSr4eZs3fpJCrBTcUS7rsTyLXcWdi8iqmhOKomJwweRmRyDDAR1HTZvrJMSKpNym4CdZ+HFG5+ywbzKGUrVPINrZ/p60zfQV/KCaTXXa+bHSU5hsvd5WKkpSKHHXjg2YJiQhgFrapI7zYnqhtCLF0LASSWzO8dlKOJ2CJeQpjtPnH06Z46fS3fBV0DompYi/xq8wjCyi8lCGvq+wsDZlyh8fBKBkL6XYUApwEmnAMeCCIQgAyF30Z71LIkWgklLIiIqmJNOYrL3t0hP6NV1HawDeqZqQFlpNHSu0QXRz8Vb9faCcvfYYTZ4d+ZRgjl79Fvomm1iZnF0HbAbgOMUXM/NnprA+OvPZe+hA3Z3V6lhIjM1XnjNOCKqfELCCEX10chAUAeojt5prZSCMoOQgaA7zDkQObuMlPdvB9O7itymE0IIKGlA2Y5+Xz4BtnL0RZV7PeXu+IbKbgb3dq2L+dTJmKuphhSQgTAMANIIQBgBKDsNIU04dgYyZEOetbOUiGqRkBLKdmA2NGDR6usgzCDsZBzx46/ASSXgZFKIvXlIH/Gesy5lzngkJVKn+/VczTBhp6YQe+slGJEmdzfm7PflPoiB5PCbABSEYcKemsDkkRchzMCs5mPe/fKcY844UTN9r8TAYb1gDoXgojY0rFwLQMGKTyB+/JUZC/lEND9MWhIRUeGEhAxFYYYTEGZo+hgiFJTjQAVC2dVy5QXPXuDsXSO3xpqQEMLQDXW8mkTu9S7YhELIs1/jOFDK1sF+NmB3u/Ne4Lh51pwNdyQgDRjBMCAFhBFwG/5ksgG7EWyADETyuwcRVS8BAAp2Mo6GJV1YvuXjMCOLkBg6isFffhvKziB56hje2v33eZanEEiPD0NIA8IwMf7Gs0ieehNQFwiw3XqayVPHYUQaoZSD4QM/xsjv9urfPqueZr4fUHfHnXErYcBKTOrx2bERXNKFji13wQg3IDHYh8EnHgSyO06JqJbpIVDBSU/BjF6Ejls+iWDzMiSHjuLoQ1+Ek04gM3Eax/b873nsGtdHuI1gGOkzQzj2//732TXSz/lAeonHCEaQPH0Cb/34S9mvL9xc93WPghsmnEQMoaVdWHHrp2CEopjsewFTJ147+4QREeWNSUsiIiqYd3TRSk0h0tKBji13IdDUitRIPwZ/+a+wYmPITJ7G8Z/+E0Q+uw6FgJ2Mw0klIAMhpMeHcOLhf9RHzy+YtNTvhVIwQg1InnoLx3Z/WU9e57p33ovrZyc3hTBgxcYgDANOJoWGjjVof/dHYQTDiB1/FUO//jd9TDL/rAARVTW921qYJqIr17pNvxy375iBTGwMqdGBvANYIQ3IUATKsZAcfguJgV7ktStIANIMus3OBGLHXgYcC4Bx4ffOh9DHNo2GJijbghGMILrycl1DePpQu7/3JKLKJDBde1dhekejW68XQurakumkWyojv3FBX88dSWxruoHOBd8468i549XD9D9pKaSEEWnUn1+IbGMyYZjTyz35LpIT0QxMWhIRkX8cBWkYaOhcg0BTq67j4+5GtJNTGH/92fx33AgBIxgBBGBNnsH42HP663m8X0iZ7RBpTU1i/LWnUZwVbl0nyYg0QtkZGJFGRFdero9DpZN6oup1ESai2ucFqwpQthsgOzpQVY4NEQgiEGpwA/Z8Kb2LOzi7E3m+79Z14YQQuinGvN498zqzCbfBBRwHwq1Tp9zEgFcORDBhSVQXslMdb4HYS9K55XqUbcFsakVT99t1QjPP3ZLKLXchDJCmiVwAACAASURBVPcUj5B5jSvKK48hpB6PhNSnfEQBY9Jcb5USmdgYEoN97vicU47IcXQ9df1hFn5fojrGpCWVzOMHh7BtQ3u5H4OIikUIdxIqpieqjqPnaI4DETARaGqdd7AOBcigAWln8i/A7jbD8TpWGqGG/GvBnftJzr6NEFB2Rk9I3SSplxTI1otjwpKoPng1eLO7e3Ka6QBQVgbRVVei/cY/mbFz6MKX1Q3EdNyf57FIeHkCmW2EAe/9fhISqZETGPzFv0KlpwCpE6PZB8juKGWwTlQ3HG8c9HZb6xrlys4gsGgpVrz3P+pdifnIaUqWrX0+7/FkupZvMZqCCSEwceR3OLZrh7sTdHoerI/Mc4clUSGYtKSS2fFQL1Z3NqJ7RbTcj0JEPlPehFAIzOiMq3TnW2VnEGy/GMtv+lMYoYZ5BN0q20hCuccQ83lvNriHu8oNUZTmtUIaiPe/jpO/+u7ZE1Wl3B1WDNaJ6oIQbmkzyy1F4f7ddxuDKeXo49MXrZvVCKK6yUBQN1xznOnGPwDcFatyPhoRlZDIDnne3Gf2/EcAyoYwA5CBUImfrriEMKYTo7mJVcFFG6JCMWlJJXXfzkN48PPXoTHC//WIaotw41MbkAZm1zJTboHyaNeVMMK1tXBhpxMARM4O0tyAnbssieqLgIDM7rTWX3LHR/d4trIyEMHaSVoq29ZNKEROkhZwh8L5HWUnouonvCPdM786/WMt7jz0dtrnNHzMEmLmj0Q0L8wcUUnFEhbu/+Zr2PHpdeV+FCLy0fTGGjHz+Lfw/qV3SCo7U/qHK7LpgH1W13KB6WLxnKgSERGRK5aw0NcfR99AHENjKfT1xxFLWhgaTc143e4vvrNMT0jzU9uL1Lf/t2cBANGIXnBb3dmIaMRAe0sI7a0hLG8JY/3q5nI+ItUwJi2p5Hr6xvGlhw7jc3esKfejEBERURnUVcBe27Gsq7Y/JAN2KpQ35vX0jeOpl0fR1x/P+73feHKwiE/mj7tv7Cj3I5RZbS9OxxLWjB9nf6/2bFzXhvbWEG64qpVjIvmGSUsqi70Hh3HDulZsXNdW7kchKrm6CtbrQm0H6wDw7cePYfd+HTRFIwaWt4TRGDGzQfv67mZOTum86jpgr+1Y1lXbH5IBOy1UT68e8/YeHM7+/5Ovj95+aVWMf4Aepz9+VbmfovJVy3/PhTpwaAQAsGvfAAA9Jv7BuhY246WCMGlJZbPjoV4svzfMxjxU8+YTrH/09kuzP6+miU19T1TzC9ar6b8ncHYSJjdonx2wP4jjAID2Vp3AvKZ7ETaua2P9YiooYAeq5+/NN54cxMeuLPdTVLZq+W9ZCAbs5OnpHcfOnxyd1wINUaXy4pPv7T4yr/cdODSCA4dGsOOhXmzf3InbN3VgeWu4GI9INYzRBJVNLGHhC996Fd/5/PXlfhSioig0WCeqNkOjKewdHcbeg8PYgV5sXNeGa7oXYfvmznI/GpUYA3aqJQzYKV8c+4jmtmvfAHbtG8DGdW2457aLORZS3pi0pLIaGk3hvq8eYmMeqimcsFItmLErKhrAR2+/dMEB+849R7F1wzJs39TJ3fU1juMf0dwYsNe2WMLCzj1HsffgcLkfhcqi9ksF+cWbG3IspHwxaUnz8u3Hj/l+zZ6+cezaN8CdOFT1GKwTndveg3oH5vruZtyyYSmPS9aYvv44Htx7PHs8lnLURSxbFx/SFwzYa8/jB4fwwJ43eaqGaB68sXD75k7ce9sl5X4cqmB1nbTMpxnG7i++sy5q8OTre3uPF+W6O/ccxaGhKazs4A6c82FnvsrEYL3eMVifj56+cfT0jWP3/kF87iNruPOyBuzaN4AH9x5nwH4utd2jxlUXH9JXDNirH3dX0jSOgQu1a98A9h4cxn13rGaTXppTXSUtC+lcScX37POnsHhLEI0NgXI/SkX6/atjuP0xvdP1XN17u1dE2fiixBisEyeqC9PXH8c9X34R2zd34s6tXRy7qlAsYWHHQ71csCEqAAP26tTXH8cXvvXqOTvJE1H+YgkL93/zNS7i0JzqIkJgM4zqkM44eGL/ID60bVW5H6UiXX1FC66+ogXf232E3XsrAIN1In94Afs9t13MI+NVpKd3HF/6/mEG7EQ+YMBeXXp6x3H/t15jXEnks137BtDTN477P7GWpTMoq6azGawvV33iUxb2PzOETe9i4LpQ5+reu3XDMiYwfcJgnchf3iLAkYEpBuxVgDvM56kuKkjUxYcsOgbslY/1K2luHAP90tcfx71f7sH9n1iL9auby/04VAFkuR+gGHp6x3HPl1/EfTsPMWFZhU4MxnHk2ES5H6NmeJ17b/9vz+L+b76Gnt7xcj9SVdu1bwD3f+s1JiwpByeqftm1bwD3fPlFnBxNlvtR6Bx27RvAzj1HGbATFYkXsHO+VnmYsCQqjVjCwn07D/FEGwGosaRlX38c93/zNSYra8Czz5/G8KlEuR+j5hw4NIL7dh7CPV9+EY8fHCr341QdButExceAvXJ5YyDNU12Uva2LD1kyDNgrDxOWdH4cA4vh/m++xpiVaidpuWvfAL+515j9zw4hNpUp92PUpL7+OHY81Mvk5TwwWKdz40TVbwzYKw/HQKLSY8BeGfr640xY+kF48yXOmyh/Ox7q5ThY56o+aekVrubup9qTzjh48lkOUMXkJS+/9NBhHsc8DwbrROXBgL0yPH5wCA/uPV7ux6gdNRevK7BMRvEwYC+vk6NJ3LfzEONMP6haHidq+bOV346HenkCp45VddLSq13JnRi1a+xMGvuf4USt2PYeHMad/+N57No3UO5HqTgM1n1S06vrnKgW046Hevl9voy4w8hvqiYDd6XgjvO199kqAQP28vCaxHH881OtLnIoKKic+S757f5vvcYSgHWqapOWbIZRP6JRdrwulZ17juK+r3I12cNg3UfKm6RyokrzxyZi5RFLWPjCt17lGFioWhz2ZhFz/Iz8xYC99Lxu7uSn2h0javeTVQavdBDnJPWnKpOWbIZRP1oWB7FubUu5H6Ou9PSN487/8XzdT4wZrBdD7U7nRA1/tkrBgL30djzUy8VhHwkhIKQBSKPcj+IvIfXw7jj6Ry7gFAUD9tI6cGiEJ218pQAhIaSsvTEQAIT+TMqx3XGwvI9Tq7zSgFRfqm4LG2vL1Y9gQOKdb1uGYKAqc+tVLZawcM+XX8R9d6zGtg3t5X6csmCw7ie9C1EICcga/PssJPSRT0cH65yoFoW3kPCdz19f7kepC7v2DfBY/ryJGT/M+LLQUaxyHCgrDSXkHMfEq3BLppBQjgVA6Kd3co6/1+Ax+HLzAvYdn15X7kepabGExYTlgkyXAtJrF2r6q+78SDkOnGQcjmGeNUaoKh0zhGHAsVI6KSuE/lzeR6nSzzTb93YfKfcjZPX0jWPXvgFs39xZ7kehEqmqpCUTlvXlndctRcviYLkfo67teKgX8YRdd98UGKwvxIUmqrrWmbIyULatE3wzVOmkzjB0EkIIPdmuwYlqJRkaTeH+b76G+z+5ttyPUtNOjiYZsC9A7tg3O3MpAAgpkRx+E/2Pfh3CqJWdRgr2VAzKtvQu0ux476qRXZcM2OvLrn0DZdvZ3xgx0d4aAgA88Zv+qlqoS4+ddEc+hbPHQAEpDKTPDOHEzx6ANAOYPfdTVbrqK6BgTU26v5DuYvbc7r6xo0RP5a/nnhvK7vKuhE0dD+49jhvWtWJ5a7jcj0IlUDVJSzbDqC+Xr27Gyo5ouR+DgGwphru2rSr3o5QEg/WF8yaqMyedImeiOoyBvd+ADNTWYkRmclR/SinBbZbFd+DQCA4cGsHGdW3lfpSa9eDe42U7gpobsMcSVlUFeKnRAcw4F+jtLFcAlIIwDFixMYy99MT0Du1qpxQgTRjBMCDdXUYi5/PnLFBV03/L2Riw14+To0ns3j9Ysvu1t4awcV0bbriqFd0romiMVE14fg65Y4B7ZFoIPRYYEk46iYneg6idwjp6sVqYAchgGLD0vHfmOKiyL61WD3z22hm/PjmaRE/fOIZGU3jq5dGSJ/m9JlncdV4fqmJUZDOM+nLJqia8/WoGo5Xkwb3H0Rgx62JVv9zB+nPPDQHQ34yra3XdneALoQ8JuqvMyuuUa0hYqSmcOfSb2gnWAT1RNUyIYAiw5MxdRrMmqtUcsH/78WMVlczf8VAv1n++uQaCu8pz4NAI9h4cLtn9vIB96/XL0N4aqpH/pgpCCNjJOKQRgGOn3a8LQErIYGSO3ebu71cbOX3sHUpBKQdOOglhmHBSCejPVP3jPQP2+lGqeeD67mbcvrkD67tr63tZdt4nBOypcUgzACc1lf19ISXMSFNtnUaRBuA40+OgY8NO6h3odjKmF3OgqnKIP5flreHsosld21ahrz+ud4HvHyjZwk5P3zgXsetExY+QbIZRX1oWB/H2azjwVKKde44iGjFqusYlg/VCCCgIKEcnLJ1UHE6kCSqT1hNY6ImqCEV0s4Y53l+VpJuAdRx4dS2ddBJCGnDSXsCOqv14nru2rcL2zZ2IJSz0DcQRS1gYGk3hpb6JsnRWjSUs7NxzFJ+7Y03J713rdu8rzQ6j9d3NuHNrV43sLMqhHMhACOkzp9D/2NchpISTSugyEraFhpVrseQdH4CQJmohmSekgdToAIb2/xDCsZEaHcSJn+0EhISdiuukpjBqK0EBBuy1qqd3vOjzwMaIiTu3dmHrhmW1NfYBbokcBRkIIzMx6o6BBhwrDSedAhwHwbZ2tG/+CGSwAWeNgVU6TAjDwNTAYQzt+z5kIIipwV4c3/N/oAA4qSkoacxcyK5B3Sui6F4RxfbNndi1b6BkY+HOPUc5BtaBih8p2QyjfrDxTuXb8VAvlreEsX51c7kfpSgYrC+crufowAiGYE2OoX/vv0AYJlQmBZVJ64lq6zIs27gdMlA7x9mENDA12IdTT+2CMIJInDyC4w//IwQErGQMMNwabzUwUW2MmGiMmHMeRzxwaARPHRotadJ/78FhbN/Uie4VLCXilwOHRoqehG6MmLjvjtU1G2R4yUlrahyThw9mdxzJQAjKsmBGGtF8+bsgjNoY+wFgauAwoL4P5diwpiYw/voz7ueWMIIRKKWyi1e1igF7bdj72+J+D1vf3Yz77lhdu8f6BfSOQzsDOxlH7M3fT4+BZhDKtiGMAJouuRYyXFvfu5WdgbIzgBCwpsYx0TfslvYUkMEIlKN3oteD7Zs7s2NhsfuRDI2m8PjBoZreVEMVnrSslGYY1Xykz2/FLET+Xz9+GSde51EpxzPv/9Zr2PnZ9TU34WKwXhidl3PcozCTmOx9fuZE1bEhzSAWrdkAI9xY7sf1lZAGhm0LELq+ZWp0EPp4qD4GqlTtT1Q3rmvDxnVtuHNrFx7ce7xkycude47yeKSPir1ws3FdG+67Y3XNLNacTY93RrgBwgzqUhjegoW3w1waUHamppKWcGwYwQgABWEEYIQaoI+M2xACMOwQZCBU7qcsGQbs1enkaBJPHRot2vW3b+7EnVu7anj80410ZCAEI9wIYQYgRKNb6VxAKRuQBkQgCMfOQALZeWItUErp+a1SetE+3Kg/t2O7yVxL1/6tI9s3d2J9dzO+9P3DRS2h8eDe4xwDa1zFjppshlGZ7tzateD3nu+/5/bNnTWZyKlFsYSF+7/12ln1naodg/VCCUgjCBlu0D+GcupWKgcQEtIMQNluqY+amqjakKEGQDkQhgkjHEU2YAdgBMM1tbv0fJa3hvG5O9Zg+6ZOPLj3eNEXHnv6xtHXH+duSx8Ue+Hmzq1dNd/QLdDUilW3f1bvtoFb41Y5bl1f0z02GYI0g7UzBioH4aWrsGr7ffrXIvsvuB2IoCwLRqSpPM9XRgzYq8veg8NFK0e2fXMn7r3tkqJcu5IEGlvQddtfQzm5Y6A+Mi6kAUD/aISjNXECJUs5iK5ci4s//F90OQwxq3u6UlC2BSNSW4v2+eheEcUDn70WX3rocNEWtIdGUzg5mqy5DTU0rWKj53I3w/A6V9JMhQQc50paekdlqXr09cexa99AzTTmYbBeOLOxBav+6K+hrIzbjEZmJ6owpBvHGjBCtTVRVcpBw4orcMmH/8t0p+AZATugrEzdBezdK6K4/5NrS7LTaNf+Ada29MHPD54q2rXrYQwEABkIoWHF5eV+jNISEjLUgOiqK8v9JBWJAXt1iCWsoh0Nr5eEJeCNgZeV+zFKT0gYkSZEV11V7iepWJ+7Yw0aIyZ27RsoyvUf3Hucc8EaVpFJSzbDqB/trSHc/8m1/DPPQ3trCN0rotkGGOW2c89RrO9urokdTgzWC1eXwToAISTMhiaYF/GI8ly8nUZf+NarRRu39h4cxp1buxiwFyCWsIq2cLN9c2ddjIFE58OAvbJ5neD91r0iyo0ZRK57b7tELxAUIc9TzNIOVH4VmSliM4z60Bgx8bmPrOGffZ62bWifcfzn5GgSfQNx9PXHy9bBtxbqyTFYJyoub6fRfTsPFe2I5O79g3Wzk6UYinUs0qtzSkQM2CtZMRavGecQne1zd6xBPGH7Xj4olrBY37eGVVyb5lI1w7j/k2ux49PrsH51M7+ZlMmdW7tqtgt1KSxvDWPjujbctW0Vdnx6HX7+9xtx722XlHTnY0/feEU0yyoEg3Wi4muMmNhx77qilV4p5emMWvRS34Tv1/Qaj3GORTTtc3esKUoNdy9gp/kr1uL17Zs6auI0EpHf7rtjdVHmg8WYy1BlqLikZSmaYTz4+evY9KXMvM6K5K/tmzvxwGevxY5712F9d2kSwjse6i3JfYqFwTpRaXiJy2KIJSycHE0W5dq1LpawirL4dM9tF3MMJJoDA/bK0tM37vvidXtriHEO0Tk0RsyinI7hjvPaVVFJy1I0w2D9xPJjfZfiW7+6GTs+va5oE+Nc1by6z2CdqLSWt4Zx/yfXFuXa3G25MMWYd63vbuYRLaJzYMBeWYpRtmT7pk7OA4nOY+O6Nt832HABu3ZVVNKSzTBqX2PExP2fYOK4VLZtaMd3Pn990XcWn6szfKVjsE5UehvXtRVlTNq9vzT1sGtNMeZeXJgkOj8G7JXjyMCUr9drjJjYumGZr9ckqkXFmCuUo8cDFV/FJC3ZDKP2eUdm2eG19O7/5NqiBpFDoyn09FbfNwkG60Tlcc9tF/t+zVjCKkp92lrXOxDz9XrdK6KsV02UBwbslcHvP7PbN3VwcwZRHtavbvb9RODQaMrX61FlqJikJZth1L47t3axlmgZ3bVtVVG76+79bfUdzWSwTlQey1vDRdmJUqzu5LUqlrB8n+BvvZ47jIjywYC9/Pr6477Hn9xlSZQ/v3MDfu+cpspQMUlLNsOofSxIXX7bN3cWLXFZbbWUGKwTldf2Tf5/T+gbYNJyPoqR5L1hXavv1ySqVQzYy6sYi9c8UUaUvxuu8nfOcHKMJTJqUUUkLdkMg6h0tm/uLMqO12pryMNgnai8uldEfd9lxO658+N3knfjujYG7ETzwIC9vOIJ29fr+V2nlKjWda+I+no97javTRWRtGQzDKLSKlZX8WpKGDBYJyo/lgwpL7/HwWJ8XyGqZQzYy8vvMfCa7kW+Xo+o1jVGTM4d6IIqImnJZhhEpdUYMfG5j6zx/brVdEScwTpR+fkd4Pl91K/W+b3LiAE70fwwYC8vv8fA7k5/k9BE9cDPk7FsyFibKiJpyWYYRKW3fnWz77ucYgkLJ0er42gSg3Wi8vP7KJ3ff69rnd+TewbsRPPHgL18/I5BWZaMaP4aw/x7Q+dX9qQlm2EQlU8xdiQXo9xDMTBYJ6o9DNjnx+/6dyyRQTR/DNhrQ3triElLIqIiKPvIymYYROXjNcLwc+GgWuopMVgnKj8GeLWDR1yJqNrk7s7/6O2XFnSt556rnmaURJVkx6fXAQC+8eRgQde5+8YOPx6HKlDZowU2wyAqr43r2rBr34Bv1zsyMOXbtaoFg3UiqkZ+Bezf232ECWiiBWLATkREdG5ln2GyGQZRed2+qcPXpKXfOxiLxc/adwzWiRbu53+/MfvzQoN2mp/bN00nOQo5WH/n1i6Og0RUdXZ/8Z3Znxf6/eeBz15b6OMQEdEcyj7DZDMMovLyO9CsluPhM4L1aGDB1zHjGQbrRFSV7tq2KvvzQgL23OsQEREREfml7JE2m2EQlVdjxPS9rmU1YLBOREREREREVLnK3j2czTCIys/PnYLs3ktEREREREREhSp70tJPrGdJtDCN4bJvuiYiIiIiIiIiyip7psKraVlI10qAnSuJCuF1rvQUclya3SuJiIiIiIiIqFBlz/J5zTAKPVDKzpVERERERERERES1oexZPq+JRSE7u3KvQ0RERERERERERNWtpmpaEhERERERERERUfVj0pKIiIiIiIjqUqEn/oiIqHiYtCQiIiKiBWPAT0RERETFwKQlERERERERERERVRQmLYmIiIiIiIiIiKiiMGlJREREREREREREFYVJSyIiIiIiIiIiIqooTFoSERERERERERFRRWHSkoiIiIiIiIiIiCoKk5ZERERERERERERUUZi0JCIiIiIiIiIioorCpCURERERERERERFVFCYtiYiIiIiIiIiIqKIwaUlEREREREREREQVhUlLIiIiIiIiIiIiqihMWhIREREREREREVFFYdKSiIiIiIiIiIiIKgqTlkRERERERERERFRRmLQkIiIiIiIiIiKiisKkJREREREREREREVUUJi2JiIiIiIiIiIioojBpSURERERERERERBWFSUsiIiIiIiIiIiKqKExaEhERERERERERUUVh0pKIiIiIiIiIiIgqCpOWREREREREREREVFGYtCQiIiIiIiIiIqKKwqQlERERERERERERVRQmLYmIiIiIiIiIiKiiMGlJREREREREREREFYVJSyIiIiIiIiIiIqooTFoSERERERERLcDdN3aU+xGIiGoWk5ZERERERERERERUUZi0JCIiIiIiIiIioopilvsBiIjKjcd6iIiIiIiIiCoLd1oSERERERERERFRRWHSkoiIiIiIiIiIiCoKk5ZERERERERERERUUSqmpiVryhFVDv59JCIiIiIiIqJy4k5LIiIiIiIiIiIiqihMWhIREREREREREVFFqZjj4UREfkhlHLx8LI2jJ9NIWwoQ5XsWpYClzQbefVUUwUAZH4SIiIiIiIioyjBpSUQ14+DhJPY8PYHBMxbiCQd2eXOWUACCJnDozRTueV8rIkEmLomoMjx+cAhDo6nsrzkhJKJ6wfGPiKh6LHiMHn/xSUydOApRZQfMlQKMYAhtN7wXRnRRuR+HiHxg2Qp7npnET5+bRNpSkFJUzM5GRwEHDyewpieOD2xoLPfjEBEBAH5+8BR6+sZ9u95d21b5di0iomLi+EdEVD0WlLQ89avdePm/fwKp4YmqS1oCAASw8t/dhbX/dSdkuKHcT0NEBXrs+Rh2PT0BKQRMozKSlR4pgIwDvDmUhu0oGLKyno+I6lMsaZX7EYiIyoLjHxFR9Zh30tKeiuGt73wZmbEJmNW6aUgB/bu+jY4P3oWWDTeX+2mIqACvn0jj4YOTUBAQFZoPlAKIJx2kMgoNoQp9SCKqK7GEf0F7e2vIt2sRERUbxz8iouox732SmckzSA6+BVHNxT8EAAnEjrxa7ichogKkMgq7n57AmbgDs8J3fTtK/0NEVG6xhDWjnluhGiPVPCkkonrC8Y+IqLrMP8xXDmBnytvdwicq7d83LCIqvV/2xPD7t5IImjUwIBERlYifATsANIYZtBNRdeD4R0RUXeY9yopACIBEtW8YUgBgBsr9GES0QG8NZ/DwczHUxAoKEVEJ+dmAAuDxSCKqHhz/iIiqywWTlsq2kT7+BhKHX4ITn0BmfATBdBxCojqb8LgcA0j37MdoQwQQBkJdaxC+7BoY0eZyPxoRXUAi7WDXUxMYi9sIVFjjHSKiSvdS34Sv1+PxSCKqFhz/iIiqy3lH2czQcQz+09/gzC9+BFgWFPSeprAEqn4nfBCYeuJHmPrlj9wvCIQuuQIdf/G3WLTpg2V9NCI6vwOvTuH5viRMHztxK+X+AwWlACEA4Tb3qdQGP0RE8xVLWL7vNLqme5Gv1yMiKgaOf0RE1eeceyWdRAzHv/hJjO55CLAtwNtZWcW7K8/iNuTR/ygkD7+C41+4C7HfPlHmByOicxkctbDrwCQAf5KJSgG2oxAJCSxpNrCyLYCL24NYuSSAJc0GIiEB29GJTCKiatfTN+5r51wA6O6M+no9IqJi4PhHRFR9zrlfcuLJRxB75gmIMOqmZJwIApnTZzCy62uIXrsJgjUviSqKo4AfPzWBM3EbZoHHwr2dlc1RAxctC2DJIgORoEQoIGBIwHZ0d/JE2sHpCRvHhtMYizuQ3HlJRFVs975BX6/XGDGxvDXs6zWJiIqB4x8RUfU5Z9IyefhFOCkFGSnl45SfCAKJV56FE5+A0dxW7schohz7X47juTcSMAo8Fq4UYBrAms4QLl0eRDggADGdyLQd/bpwUCASMtDWaKBriYmjQxn0DqaRsRQTl0RUdXp6x30/Grm+m7XAiajycfwjIqpO50xaOumk/kmdHYkUArDOjIBnQYkqy/AZCz95dhK2owpKWioFBE2Bay4J46JlASild3DONdZ5SUwACAclrloVQmNE4qWjSaQyTFwSUXXZvd/fXUYAcGlng+/XJCLyG8c/IqLqNCNp6UxNwB47CTgO1NQYjLCEDNVSEcs8KAURkEgffxXm5FKISBPMJSvK/VREdW/X05MYGC2sW7hSgJQCV18cwkVLA3Cc+b3XVsBFSwNQjsKLb6ZgccclEVWJA4dGcODQiO/X3bphme/XJCLyE8c/IqLqZQKAPTKA8V07kHztWajEJKAc2PFJNF20uC6LtwkhMPJP/xFCSohASurLawAAIABJREFUCEbbSjTf9pcIX7sFdVPgk6iCPPN6As+8NgWzwDUURwGXdQRw8bKg3l25ALYDXNwexMSUwusDKY4IRFTxYgkLD+497vt1u1dEWc+NqEDr/+ZRX67zf37yInr+7lZfrlVLOP4REVU30xo+hlP/6w6kj74EGKbbIhwQ0oAMGGV+vDJRgHNmCMo9G5rpP4zU68+i9d9/CY1b7iz30xHVldPjNvY8M4G0pQpqvqMUsCgicUl7sOBnchTQ3RFA/1ga8QR3WxL5gYF78ezccxR9/XHfr3vDVa2+X5OIyE8c/4iIqpuc+Ok/IH2kByLUAGEGIQwTwjD1Dkuvzlu9/QMA0tB/FmYAIhiGSicxsecfYJ8+UeifORHNw8MHJ/HmUKbgbuGOUli5JIDGiFzwLkuPUkBDSGLVkoXv2CQiKoVd+waw9+BwUa7No5FEVMk4/hERVT9pnXgDkHW6o3IehBmAdbIPqaMvlftRiOrG744k8cRLcZhm4d3CwwGJtkUGhE8HuoUQWNZsoF43pBNR5du1b6AoxyIBYOO6Nh6NJKKKxfGPiKg2SCYs8yQEVDqpa34SUdFNJhzsemoCtlN4JVkFIBSUiIYkHOXP1kilFIIBiWi48J2bRER+8wL2WMIqyvVv2bC0KNclIioUxz8iotphXvgl86AUlHIwoyWvEBDSKE1DH+VAOQ7g2HprlRCAlBDS9On+LFxHVCqPHJxE72C6oG7hWQoIGEAo4N/fYQUgYAgETbeUBocHIqoAXtOJXfsGinaP9tYQ1nc3F+36REQLwfGPiKj2+JO0VArKsSGDYYSWrECgcTFEIARlZWDFzyB9qh92agpCymyjH18pB8q2YDS1IrBkJYyWdhjRZjipBKyRfqRPvAEnNeXW6izC/YlqVCrj4HB/HKfH0/Bpg2JeRuPAr3+fhuHTX1cFdw3Dq9XrEykAKYWflyQiWrCe3nHs/Elxmk7k2r6pE40Rf9e9iYgKwfGPiKg2FTziKseGEQyj4eKr0LjmephNrZCBEGAYgGNDZVKw45OI9b2AWO+LbvLSvyPpyrEhAiE0XrcNi278YxhNbZDhBiAQAuwMnEQc1kg/Jp/eg/hLvwGsDCCZuCS6kJffnMS/PHoCb5yIIZ60S3NTBQgpsGTJMoQCQZ1k9IGA3nxtKwXDx8SlowDHUdxkSURl1dM7jr2/HS5aw4lc7a0hNqAgoorB8Y+IqLYVlLRUjo1A8xK0Xr8N4ZWXu0eyJQClj2gLCRFsgBkIY/GG96Kh6wqMHnwMqZF+XxKXysrAbGlH64c+g8iVN+ptT0IAEPpZjABkdBGC0UVo67oc4e63YezhnXASk2w+RHQefQNT+P/++XUMnUlBClGiPL+AUgptixcjHAz6fWmkLYVkWiFk+rMzUgDIWArJjOLRcCIqqVjCwtBoCgcOjeCpl0eLvrMo151bu7jLiIjKhuMfEVF9Wfio6zgwG1uw9MY/RmDJCp2khEBmtB/p0UFkxkdgNi1GsGU5gktWADYQbL8ISzb/O5z6zQ+RHh0oLHGpHBjRZrRt/yzCV7wLsC3AUbBOn0Dm9AnYk2MwW5cjsKQLRms7YDuIXv9eyGAYp3/4d1CZFI+KE53Dd385gOEzKQTN0v0dUUqhIRJGc3MThNAJTL9IASTTDuJJB4ujBnw56y6AqZS+pmTSkqiirP+bRy/4mp6/u7UET+Kf+756CLGkbioxNJoqWoOJ89m4rg3bNrSX/L5ElJ9aHfsAcPwjIqpTC0taKgVIA4uv3YLAkpWAY0HZFiZefQaTrz4De2pSd9tWDoxwAxrXXIfmdZsggxGYzUvQcv0tOPXE96Bsa2ENcpQDGAG03PofEF77TsDOQCViGN/3Q8Rf/CXsM8NQVgYiGEFgWReaNm5H47U3A0Igcs270TTQh/EnHoTwq2AeUY3p7Y+VpnlWDmlItCxuhmkYviYsPWlLYXjcQkerb6V8cfKMBduBb7U3iah0vvHkYLkfIW9339iBnr7xsj5DY8TEnVu7yvoMRFS4ahr7AODKa9rwvd1HyvoMHP+IiMpnQaG2Ug7CS1ei4aIr3B2WwJkXfoEzL/xCN7wxAxCGCWkGoTJpjP/+SYw++wiUYwG2hXD7xYh0Xa5/vZD7OzZCXWsR3XCrTpimUzj9/b/F+C8fhDU2pDuGB8OAcpAePIKRH/wdxp/4jt5Z6Sg0/cEHEWhbMbPLORFllbLpjr6fQnNTExr+f/buPMyO6j73/XdV1Z57ltRSt2YkJEACMRgxGASYgI2xIcZhSgJxEmcgPsk59g0n04nD8clNcu3c43uTeIgdJ9jYcWxyfQwG+xpiDDZgZptBIDEIzd1Sq+fec1Wt80d1CzAaeti79+7e7+d5+hFS71211HQvVb31W+uXSlUlsISoCc++/jLD2ZlXRjoGxvIBew6VVWUpIg3hAxd2sWZpptbDEBGZdZr/RERqZ5r1QYbU0hMxXgKMIb/3FUZffjpa7v3zS66Ng+N65Ha9SHbHc9HnHZfU0rUYLza9dMRC+pR3RvtSOh6jj36b3EuPYWKJqEP4xAZzxmBcD+N6jDzybQqvPA2Og9u8gNTJ5007NBWRyrHWkkwkaGtpqVpgCVHhaL5o2b6vSDiD0xgDfggv7C5RLNvZLkgVEZl1m9a0cs2W7loPQ0Rk1mn+ExGprWmFlsZxSCxZDTYAY8jueBYblI++nHR8qXju9eejyswwJLFwOU48xZTb+FqLE0+SXHt61G+nMEb+pZ8cO/x0HMLcMPltj0Pog+uRWHEyJpYEVG0pUkuO49De1obrVr85luPAvv4yr+yPGgxNNXCceP0r+4r0DKjKUkTmv6aUxy1Xr1bzCRFpOJr/RERqb9o7sTmJNGCwpQL+2OBxX2+MoTzST1gujr8/iZlWIxyLSSQxXhyMQzDcRzDaD8cLPFyP8oGdUQMea3Ga2seXkE9jCCJSEdZaWpqaSKeSVa2yfOs54aW9RV7aWyAMmXTwaAwEAWzbU2T7vuKsL6EXEZltTSmPP7xhrZZFikjD0fwnIlIfZtA9PNrLEuNMvgu3ATOxdHsG6zONcaMEwYINQ+xk9qY0EBTGDp/XOM7EIUSkRuKxGG2tLbN6zonw8aU9RYayAScvT9CadqMqSvvWOWGistJaGMmFvLi7wP5BH+ys9ykSEZl1N12+nHduXFDrYYiIzDrNfyIi9WGaoaUlyI/itS7ExOLEmtop9u059jusxWtZiInHxwPELHYi+Jzq2cMgShZsiNeyELe5A3+wN9rj8mjCgPii5VGFpmMIRgcJS4VpnV9EZs4AC9rb8Txv1qosD597/IHFvn6fQ8MBXQs8uttjZBIOnmdwTPR8ww8sY4WQnsEy+/t9Sn60h6UCSxGZ767Z0q193ESkIWn+ExGpH9MKLW0YUuzbS6JrDdiQ9MpTyO5+kSgGOPq+lpmVG2C8SrLUvz8KDae8qZxDkB2mtP9lvM7lmEwLybVnUtz94jEGbDFujPTJ50MsDmFIuWcHtpjHxBJTO7+IzJi1lubmZtLp6nULPx5DNP2UAsvOA2V2HiiRSjikYg6uA0EIhXJIvmixRMvItYeliDSCa7Z0c8vVq2s9DBGRWaf5T0SkvkxvT0trKfS8hg1KYC2p5etpOfkcbBi8vXrShli/TNPqTWRO2BStswxDCj07sIHPUUPO45w/+7MfRv8dBrRc+EskVm7Elgpva8hjw4CwVCBzxmUkTz4vGk9uhPy2x8DVpsois81aSzwWp32Wl4UfjWEikDQUipaBsYC+4YCBsYB8MaqsVFgpIo1CN+wi0qg0/4mI1J/pdQ93XQp9e8jt3BotyTaG1k3vouMdV+BmWsGGhH4JGwY4ySbazriE9s3vwbguOC6FntfI7dmGmWZoaByXws4XKL76UzAOTrqFhTf8KZnT3xV1Ki8Vog+/jNeygLZLb6Lj/bdgPA8ch+yzD1LqeQ1zrOXkIlIVxhja21qJxWK1HsrbTASUjhP9Wsll4Mo9RaSeTXTJ1Q27iDQazX8iIvVrmqWGBhsGDP30B8RaFkR7RQLNp5xHsnst5YH9lMcGcdOtxDuWEO/oAhuC4+IPH2Tw6e8T+qXph4aOQ5gbYeDuz9D563+J296Ft6CLBdf9EZlXn8Ef6CXMDeO1Lya+7CRi3WuixkFenNLO5xl+4GvqwCNSA9ZamjIZmjLpii8LdxyHcDJNuWrAAq5rcFWyKSJ1aKJLrppOiEij0fwnIlLfpr0+2hgHPzvMoYe/Rcc57ye5dA0EPrG2hcTaF0chpXGiX8MQPI9y314O/eRuSoMHZ1zlaFyPUs+rDHz77+i4+g9wF3RhvDipjRcAJgopHRdCf7zTuaHw4qP03/V3BMN9WhouMsustcRiMTra2jDGVDS0jMdcEvE4+WIJ359eg69qshbSCUPcU2gpIvVlzdIMt33oJJZ0JGs9FBGRWaX5T0Sk/s0ouTOOS3mkn0M/vpOmde+g+aRzcBMpCMvjr4jCAxsGjL3wGCMvPYafHa7Ysmzjxcm99BjlQ/toueCDZM64FEPijX0tAz9q3DPaz/AD/0r2p/cTFvPTXpYuItNnjKGtpYV4PFbhwNIjmYjhOA6pZJxcvkgQ1FfFpWNgcZuHO71dhEVEKq4p5XHT5cu5/OxOmlK6LhKRxqH5T0Rk7pjxLG0cl7CYY+hnD+DEErRsvCAKCyc4LsWeHQw98wPCwI/2tawg43qU+/bQ/+9/i9vUTurUC8Evv/GCWJzccw8y8vD/hxNPKLAUqQFrLelUipbmpooGlrGYSzIRx5joHI4xpFOJugougxBam1xOP0FP8UWkPmxa08otV69mzdJMrYciIjKrNP+JiMwtlUnwjBNVTx5lPzlrQ3AcjK1OmZFxPawNsaH/9k+O5yPG86Ll6iIy61zXZUFHe0WXhcdiLqnxwPLNHGNIJ+PkCqW6CC6D0HLWmiRru+K1HoqINLjFHQmuubBb1UUi0nA0/4mIzE2asUWk6tpbW4nHKrcsPBbzSCVimKO093Ycpy6CSz+wrFgY5+pzmms2BhGRTWtaOX9jh27WRaThaP4TEZnbNHOLSNW8eVl4pRytwvLnOY5z1FCz2qyFkm9ZusDjQ5e10tmmqVZEZldTymNNd4abLl/OmqUZ3ayLSMPQ/CciMn/Mnxnc2jca8IhIXXAdh472NhzHqUiVZTzmkUzGmEwUmSvUppN4GO2GwbknpfjgeS2s6IzN+hhEpDE1pTw2rWnlvI3tvHPjAt2oi8jb/MYFXbUewpRc9n88MqnXaf4TEZmf5vZsbkNsGEIYYlwPk0jVekQi80Il8n9rLa1trSQTiYoEllHTnRhmEpFlvlCiXD7CHrdVZC34oWVRi8dV5zazZUOauFebSk8ROb65duM+YeJGfHFHgiXtSRZ3JDihO83a7iY1lhCReU3zn4hI45mToaUNfLAhTrqZWHsXqZM2kzrxbOLda97auVxEpm0mOaO1lnQySWtzc0US0JjnkkomjhtXWguFYonSLAeWfmCJeYZzT0xz/ZZWlrS5s3p+EXmrZz95Ra2HUHH3/9/vrPUQRKTOae4TEZH5Zm6EljbEBtEyT+PFSKw4meTaM0mtPZP4ipMw8fEKy8DXEnGRCnj/eZ38w7d3E9gQZ6r7QlqL67q0t7fhuu6MqyyjwDI+qSXh+eLsV1iWA0tXu8fV5zZzwSkZXGdWTy8iIiIiIiIyL9VvaGkt1oYQ+DiZVuILl0VB5cnnElu0HCfTCpYoqPTLtR6tyLxy3cXdlH34wnd3U/ZDXGfywaUFWpqaSCWTlQssJxGczvaScD+0eI7hnSenueb8Fro76nc6FREREREREZlr6usu21psUAbj4MQSxJesJnXSOSRXn0Z82XpMqgnCAGx4/KDSGHC96EPVlyJTYgz86mXdxGOGf/j2Lvxw8hWXyXicttaW2QssrSVfLM/aknBrIQgtXR0xfvHcZi44JX3cTuYiIiIiIiIiMjW1Dy0PN9MJcFJNJFaeQmL1qaRPPo/Y4lWYRBqMA0EZysVjH8s4Udtex8UWspT2bKe46wWyT98XfU5EpuS6i7vwA8vnv7MLP7THDy4ttLQ0z3hZ+JQqLGcxsAxCcAxs2ZjmqnNUXSkiIiIiIiJSLbW547Y2aqYDuOlmvIXLSJ98Hok1ZxBbvDJa+j3ebOe4jXUmKioBmxuj3L+X/LbHKLz6M8oHXicYG4o6iztqjCEyHTde2o2FKLgM7FGXiltriXke8Xh8RuebWmA5O013QgthaOls9bjuwhbOXpci5qq8UkRERERERKRaZi+0DMNo6TfgxFMkVm0kecImUuveQXzpOvDiUQAZ+MevqHQcMC4Ygy3lKe18gcKOZym88jTFvS9j/SJYi3E8TCwxC385kfnLAL9yaTeuA5+9azdBGB41ULTWzk6FpYV8qUSpVP3AMgjBc+HijRmuOqeZzjZVV4qIiIiIiIhUW/Xvvq2FMMCkm0i0ryW1/hxS6zfjLVyKk24Zr6YMouXfx2IMOC4Yh3BskHLfHgrbnyD/ylP4h/YTZIfAcTGui3FjVf9riTSaGy7pply2/NP39lA6QnMeYwx+EJDL5Ukmpv6wwKuzCktroRxalnbEuOb8Zs5bn8bRLhMiIiIiIiIis6IKoaWNgkhMVBGZaia+bjOLTjqPxLJ1EEtGn7ch+KVjH8pxwPGifS9LBUq7nyP/8lMUdj5Had8r2HIRjIMxjioqRWbBTZcvJRYzfPbuI3cVN8YwODxCKpUglUxhiSo1j6feloQHoSXmOVywIc0Hz29hYYu2lxCptmc/eQX//HDPjI/zGxd0VWA0IiKz49lPXgEw4/lPc5+IiMxHlQ0twzCqhsykIdMOzR0QS+J6MVxjoorKYwaVZryiMmqmE470U+7ZQf7VZ8hvewx/sJewkAVjon0qvZntnSciU3fDJd3YED73nd1v6yoehJa2phg3X9LK7n6XR7flcIw5ZnftelsSHlroavf44DtbOO+kdFXPJSIiIiIiIiJHVrnQ0lrcrhNg5UbwEuC60frK8eXhx2ScqJlO6BPmxyjte5X8i49S3P0Cpd5d2FIeXC+qqFRQKVJzN7yrGz+0fOHe3Yeb8/iBpa3J46PXrObysxeSLYSUAnji5dxRm9ZMaUl4lQNLYwxhaDnQP8xlp7YrsBQRERERERGpoYpWWtpkBtKtUSOdMDzGK8erKY0DxhCODVDc/RKF135G4eUnKR/ah/WjPS6Nq2Y6IvXGGLjpsqV4brRUPF8MWNAS44+uX8MlZywAIJN0+N0r2sHCU6/mox/5Nx0j5rkkp7IkvIqBpWMMY/kiu3sGGBjOYkxr1c4lIiIiIiIiIsdX+eXh9hhhpTHgxiD0CUb7KfXsILf1EUo7Xzi89Nu4HjgOxlMzHZF6d+O7unGM4YGfHeL6i7sPB5YTUnHDb17eBgaefDmPGz2niJaEJyYbWJarFlgaA2Fo6ekfYW/vILlCGdc1TG4nThERERERERGplup3D4fDnb/D7DCFHc9SeO0ZCq8+S/nQnmjpuHEwjquKSpE56PpLurjinEW0pI88nbSkHX7ninastTz9ap6E502t6U4VAktjouXg2VyRXePVldZaHEdhpYiIiIiIiEg9qHBoad/+R8YQZkcY+sEdFF5+kmCkn7CYi5Z9O27UuEdE5rSjBZYT0nHD717Rwd/dM8juPlvjwNIQBAEHB8fY0zNAseTjOAZjDPYIU5iIiIiIiIiIzL4Kh5ZHCCKMQzDSx9jT38eW8hhHe1SKNKKDwwGtaY/WdMBo8dgLsKuxJHyiunJsvLpyUNWVIiIiIiIiInVr1paHGzcGTilKDkSkobx+wOeeJ7OM5i1tGYMxltHCkV9bKJYplcoVPb9jDH4QcHBgjD29AxTLPo4xk6r4FBEREREREZHZNzuhpYg0rB0HfL73VI7RXDje5AZa0wZ4e3CZr1JgOZorsKdngP7h3OE/ExEREREREZH6pdBSRKrCWth50OfeJ7OM5e3hwHJCa+qtwWWhwntYGmMIw5B9fcPsOzhEoVRWWCkiIiIiIiIyRyi0FJGqyBctT71aYHAsJBE70n63UcWlH4QMjPoUy/4x97mcrIlccixXYNf+AQZHsoCqK0VERERERETmEqdSB7JBGWx4tM9i/TJqzSvSONJJw7vPSLO2O4YfvP3zE9PBFWem2LjCJQhgpjNEVF1p2XtgiBdf62FgJIvR3pUiIiIiIiIic87MKy1tiA1DkqtPI758PYTh2z7vNi8iffK55F74MTbwMa4KPEXqlR9aHnw2x2jB8vONtTedkGBVZ2zSx2pJO1z5jjT3PpljR2+ZmBcdcCKwvGhjknPXJ9m8LkE5GOCZ1wrE3KkHjBOh5Fi2wM79/QyNau9KERERERERkblsZumhDTHxJK0XXU/zuVfjpJsgCMBxwXGiZCIIcDKtLLj+j0ifdhHDD3yNUs9rGMet0F9BRCrJWhjMhgxnw7eFloXS1GshW9MO79uc5p4ncrx+wMd1oiXcE4ElQCbpcMsVHXz+e4P8dEcBdwo14MZES8x7Dw2z78AgpXKA8/MDFxEREREREZE5ZfrLw60Fx6PjF/8zrZfejJNqAhOlEX7fHgrbnqDcuwNsAK6LcT3Sm95F5023EV9yAjaoXMMNEaksx0TPHX7+Y7qFiy0phyvPTrOy08MPLFs2JNm8LvmW1zSlHD787jZOPyFBeRLTgzFRJeVINs/213vZue8QfhAqsBQRERERERGZB6ZdaWnDgJZ3foDMGb8AQRmAwvanGXnoG5QP7SEs5HDiKbyOJbRc8EskTz4XY4u4i5bRdtmv0ffV2yr2lxCR+teadnjvWWkODPmsXxZ/WxUnQFvG5Zb3dvC57w7wws4S9ii7XDrGUA5CevsG2XtgCD8ItG+liIiIiIiIyDwyrUpLG/jEF6+kZct140dxGX3sbg5++c/Jv/IU/vAhbClPMNpP4fXn6fvaf2f4B3dEpVq+T3LtmSTXnIn1S5X8u4hInetodjh5+ZEDywlNSYdfu7SV1nRIcITeXo4xDI3l2bajh537+/HDUIGliIiIiIiIyDwzveXh1pJcvxm3rROA4uvPMfT9f4GgjPHi0X6VxgHHxXgxwDD64zvJb30YjINJZsiccSkmllBHcRF5m7se6eWR5/YyPN5QZyKUDIKQ3T0DbNvRw+BoLuoMXsuBioiIiIiIiEhVTGt5uHFdUmtOhzAAYxj50Z2EuZEohDwSxyEsFRl+8Buk1p8Hnke86wScRIowNzb9jfJEZF7xA8vt39/H//Vvr+MHlpFsL+0tKVqaUhSLPoOjOfKFqEJbncFFRERERERE5q/p7WlpHLyObsBg82P4QwejyspjvsXBHzyALeUwbjNOpg3c2LROLyLzTxhGgeXf3vk6QWjxXIO1lv6hLIcGs2DAYLQUXERERERERKQBTLsRT9QpnGh5t4Hjr9GMXmADHwM48US0jPwojTZEpLHc9ejBqMIyDHHftOmlMUbF2CIiIiIiIiINZnp7WmIJc8NgLSbTgtvccdy9Ka0N8VoW4qSaAQhyo9jAZxJpp4g0gKExn5If4hyrS4+IiIiIiIiINITphZZhSKn39agbuLVkTr0IHPfY77GW9GkXgRcDx6XctxtbzCuzFBEArrt4CTdf3k0QWEIVYIuIiIiIiIg0tGmFljYMyb34CJRLEIakT7uY1PpzsKX8kV9fypNceTJNZ78nqsi0IYVtTxAWs8fdC1NEGkMm6fIXN63lQ+9eShDY4xVvi4iIiIiIiMg8Nq3E0LguhR3PknvxUXA9TCxBx1W/R3rDBVi/jPVL2MCPfi2XSJxwOu1X/+eo+Y7jUtr9Itlnf4hxp7+lpojMP55r+LNfXsPNl3UTWgWXIiIiIiIiIo1q2t3DKRcZ+v4/E1uymtiiFXgLlrLwxv9G9oWHKO95GX+0HyfTRqJrDenTLsJpagMLYXaAwXu/QJAdxnjqHi4ibxXzDH/2KydgDHzl/v04jkHbXIqIiIiIiIg0lumXOjoe5b5d9N/5KRZe+1/xFq/CJNM0nf1eOOs9YMMo3Bzf9xLHIRgZYOB//T8UXn8O46nKUmSucWdpN4dk3OW2m9fiGMPt9+3DuEbb34qIiIiIiIg0kBklh8aNU9z1Agdv/zNaL7uZ1LrNUUWla8A6YAxgsIUxCjufZ/g/vkJx14uqsBSZo3b0lhkaC6f8vtBCd4fHsoWTn3Icx/Anv3wCfmD52gP7MUYVlyIiIiIiIiKNYsbljsaNUT60l/5/+2viqzaQXL2J2IJunGSGsFTA7++huHsrhR3PYf2iAkuROWxPn8+uA+Upvy/qBp6cUmgJkIg5/PlNa3Ac+PL9+zGOiZ6FVJm20hQRERERERGprYqs0Z5oqFPc8TzFHc9jvDjGdbFhgPVLYC3GjWFcBZYic5nrgDuNcsfQTn9peSLm8Bc3n4jjGL5y336AqgaXrmNoSrrVO4GIiIiIiIiIHJdHOPWlnkdzuIrShlg/Ou78CSrt4U7pIjK7XAf++IYTCEK44/59VWvOE1pLMu6yekmq8gcXERERERERkUnznLbFUaOcSpqN9ZuzLQhwO5YQW7a+1iMRaUjJuMNf3LQGx8CX79tX8aXiYWgp+ZaLNnWwaU1z5Q4sIiIiIiIiIlPmtVz1nyg89wDByCGMF6/1eOqTDQn9Ei0X/yqxZSfVejQiVReE0YetUCgY2ol9LWfGcw1//itrsNby5fv3EwS2IsFlGFram+Ncf+4i/vDa1dNaAi8iIiIiIiIilePFV5/Ggt//R4bu+Dil3VvBTHPjuXnKYDHJJlqv+B1af/G/zM8qUpE3cY3hjBMSFP3KBIIQFXN3tlZmn0jPM/zxjSewaU0LAyMlnJkGjBZaMh7rl2c4ZWUTnqufcREREREREZFa8wBSp19KYs0ZlHZvxe/dCX4ZdN8OgNO6iNj+aV4PAAAgAElEQVSKk4l1ra31UERmhePAiUvru+o6nXD54IWLaz0MEREREREREamSw93DneYOkhsuhA0X1nI8IiIiIiIiIiIi0uC0FlxERERERERERETqikJLERERERERERERqSsKLUVERERERERERKSuKLQUERERERERERGRuqLQUkREREREREREROqKQksRERERERERERGpKwotRUREREREREREpK54tR6AiEglfPO5T0/7vded9tEKjkREREREREREZkqVliIiIiIiIiIiIlJXFFqKiIiIiIiIiIhIXTHWWlvrQYhI/ZrJsmuYvaXXWh4uMrd95fu7ueO+PRU51k2XL+fmd6+oyLFERKpN85+INDLNgXIsqrQUERERERERERGRulK3jXjmSnWXiIiIiIiIiIiIVJYqLUVERERERERERKSuKLQUERERERERERGRuqLQUkREREREREREROqKQksRERERERERERGpKwotRUREREREREREpK4otBQREREREREREZG6otBSRERERERERERE6opCSxEREREREREREakrCi1FRERERERERESkrii0FBERERERERERkbqi0FJERERERERERETqikJLERERERERERERqSterQcgIiIi89u3frSfz931+qyd74779nDHfXuO+vmmlMdNly/nmi3dszYmEWlMmv9EpJFpDpSZUqWliIiIVNU1W7r5/MdOpylV+2elTSmPP7xhrS5WRWRWaP4TkUamOVBmSqGliIiIVN2apRnu+LOz2LSmtWZj2LSmlc99bBPv3LigZmMQkcaj+U9EGpnmQJkJhZYiIiIyK5pSHn/7extr8oT7mi3d3PbrJ7GkIznr5xYR0fwnIo1Mc6BMV+1rdEVERKSh3HL1ak5b08Jt/7Kt6ufS3kUiUk80/4lII9McKFOlSksRERGZde/cuIDPf+x0FnckqnaOxR0J7V0kInVH85+INDLNgTIVCi1FRESkJtYszfD5j51elf2FNq1prdqxRURmSvOfiDQyzYEyWQotRUREpGaaUh63/fpJ3HT58oodc2LvonroVCkicjSa/0SkkWkOlMnQ/0kRERGpuZvfvYL9OZ8fPNwz7WPEYw5/8METePfZiys4MhGR6qrE/NeU8vjdq1dp/hOROUdzoByLKi1FRESkLnQuSvGeS5bR3haf8nvb2+K864JuXayKyJw00/nvb2/ZqPlPROYszYFyNAotRUREpG60t8V5zyXLWNaVmfR7OhemeNcF3dO60BURqRczmf/WLJ38e0RE6pHmQDkShZYiIiJSdy48dzEbT2o/7uvOPHUBF567mHhMlzQiMj9o/hORRqY5UN5Me1qKiIhIXTr15HaWdWV44OH9lMrhWz4Xjzmcc9aiKT2NFxGZKzT/iUgj0xwoExRJi4iISN1qb4vz/neveMvS7/a2OO9+11JdrIrIvKb5T0QameZAAVVaioiISJ2Lxxzec8kynnm+n1Ip5MzTFmgpkIg0BM1/ItLINAeKQksRERGZE848dUGthyAiUhOa/0SkkWkObFyKqEVERERERERERKSuKLQUERERERERERGRuqLQUkREREREREREROqKQksRERERERERERGpKwotRUREREREREREpK4otBQREREREREREZG6otBSRERERERERERE6opCSxEREREREREREakrXq0HICL154fP3kPf0P7oN+0zO9Y3H/oC11302zMflIiIiIiIiIg0DFVaisjbPPTsvdz5o3/izh/904yPVYljiIiIiIiIiEhjqbtKyw996lKyhVGuvfrGGR3n2v+xGYDbb/0BmWRzJYYm0jCyxdHD/33nXV+v4UhEREREREREpBGp0lJE3iZbGD3+iyZpUVtXxY4lIiIiIiIiIo2h7iotJ6i6S6Q2soVR+oZ6KnY8VTqLiIiIiIiIyFTN+0rLSoYvIo2g0j8zmYRCSxERERERERGZmroLLSu9lHTrrqcrejyR+a7SPzNaHi4iIiIiIiIiU1V3oWWlq7J2HniloscTme9e3PVMRY+n5eEiIiIiIiIiMlV1F1quWrKuosd7cvtDFT2eyHyWLYyytcKh5Skrz6zo8URERERERERk/qu70HLl4hMrerxsYZSdvS9X9Jgi89XWXc9UtHM4wKrFlX0QISIiIiIiIiLzX92Flp2tld//7t4n/q3ixxSZj777eGV/VjLJZjq1p6WIiIiIiIiITFHdhZaVXh4O8OCz93BQXcRFjmnrzqcr3oRng5aGi4iIiIiIiMg01F1omUk2VyW4/Ozdn6j4MUXmk+9WoSK50ts9iIiIiIiIiEhjqLvQEmDDyrMqfsytu57mCTXlqSs/fPaeWg9Bxj2x/aGq/HxcvOn9FT+miIiIiIiIiMx/dRlaXrvlw1U57mfv/oSa8tQR/f+oD9nCKHf+6IsVP+6qJeu0n6WIiIiIiIiITEtdhpaZZDOLqhB2ZAujfPLOWyveHVmm77Y7btH/jxq7/b5PVyU8PnvdloofU0REREREREQaQ12GlgCb119cleP2DfUoKKsj2cIon/rmf631MBrWvY9/nQertExfS8NFREREREREZLrqNrSs1hJxgJ29L3PrF39VS5PrxNZdT/MZNUqadfc+/nXu/NE/VeXYm9dfpKXhIiIiIiIiIjJtdRtaZpLNXLzpfVU7ft9QD7d+8VfVDKZOPPjsPWqUNIsmAstqVRxfVMWfXRERERERERGZ/+o2tAS4dstvVf0cn737E3zm7k9wcKin6ueSY1NjnurLFka5/b5Pc/t9n65aYLmorYsNK8+syrFFREREREREpDHUdWjZ2dbF5vUXVf08Dz57Dx/5+6u5/b5PK7ysoYlGSVIdW3c+zW133MK9j3+9que5cvMNZJLNVT2HiIiIiIiIiMxvdR1aAvza5R+btXPd+/jX+cjfX82nvnmrlirXSN9QD7d95ZZaD2Ne2boz2jP0tjtuqXol66K2rqpu6yAiIiIiIiIijcGr9QCOp3M8BKlWh+MjeWL7Q4dDy83rL2Ll4hPZsPIsFrV1k0k2qYrsTb750Bcqfsytu57m3se/zpXn3FjxYzeCbGGUvqEentj+IE++/KNZXXJ/7Zbf0s+HiIiIiIiIiMxY3YeWAB+6/KNs3fU0fTVYuj0RYN7JW7ssX7vlw1x30W/P+njqTbW6T99+36dZ1NY9K9sDzHUTlanZYrRHZd9QT9X2qzyWzesv4hJVWYqIiIiIiIhIBdT98nCIOol/aBaXiUt9+KwaJE3K1l1Ps3XX0+zsfZmdvS/XJLDMJJtnpXGWiIiIiIiIiDSGOVFpCVEV1+b1F9XVXpPffO7TtR7CvJYtjHLrl36ZKy+7qtZDqWvXXv3GMvo776puk52jee/m61m1ZF1Nzi0iIiIiIiIi88+cqLSc8HtXfbwugpFrr74R2rO1HkZDyOWyPPrEj2s9DDmGDSvP0v6jIiIiIiIiIlJRcyq0zCSbufXaT9V6GDLL9vXs5fXdr9d6GHIE0dYNH1XzHRERERERERGpqDkVWkLUTfy2mz5X62HILHvqp4/Rd+hArYchb5JJNtdN9bOIiIiIiIiIzC9zLrQE2LDqLAWXDejRJx4mm9Oy/Hpx7ZYPq7u7iIiIiIiIiFTFnAwtQcFlIyqVS9rfsk5cec6N2sdSRERERERERKpmznQPP5KJ4PK2O26p9VBklgwND/LoEz/m/M0X1nooDevKc27kQ5d/tNbDEBERERGReW7JqdfUeggyC/7qc5+Z0fv1fTJ/zdlKywmquGw86XSm1kNoWAosRURERERERGQ2zOlKywkbVp3Fp37rq3zmO59gZ+/LtR6OVFFbazunrN9Y62E0nEyymWu3fFhLwqXm9BR1fpvpU3bQ98h81/v8t2o9hJrQ97Ucz5/WegBSVY06972ZvgZyLL+h7495Z+LaZ16ElgCrlqyLgsu7P8GDz95T6+FIFcRjcc4+4xzisXith9JQJrqEq+mOiFTbn97ykVoPQURERERE6sS8CS0nfOSqj3PKyjP57N2fqPVQpMLeccY5tLW213oYDWXVknXceu2n6GzrqvVQRN5CT9tFGosqDSOa+0Qai+Y+EWl08y60BLhk0/vYvP4ibr/v06q6nCdOXLOepV3Laj2MhjGxHPziTe8jk2yu9XBEREREREREpMHM+UY8R5NJNvORqz7Op37rqyxSldictmrFak7feGath9EwNqyMmltdec6NCixFREREREREpCbmZaXlm61aso7P/v5dPLH9IW6/73/SN9RT6yHJFLS1trNJgeWsWNTWxZWbb1B1pYiIiIiIiIjU3LwPLSdsXn8Rm9dfxBPbH+LJ7Q9p2fgcoMY7s2PDyrM4e/0WhZUiIiIiIiIVNlgKGPFDCqGlFIYUQ0shsBQDC0DMMeMfkHYc2uIuLZ5Dkze9hbGhhQNFn0Mln8FSiOcYFsVdFsZd2uNuJf9qIlXXMKHlhInw8iNXfZx7H/86T27/EVt3PV3rYckRqPHO5N1519en9PpMsplVi9dx7ZYPs2rJOoWVIiIiIiIiM1QMQ/bkffbnfXqLPvvyZfbmffpKPlk/JBdY8kHImB+S9UMAkq5D3DWkHEOL57A46dGZ8FiS9OhKeCxNeSxLxViWjGHMsc//WrbE3T2jvDhaZF/eZ3/BJ+4YVqZjLE/GOG9Bkqu6Wkg4xzmQSJ1ouNDyza4850auPOdGsoVRHnz2Hl7c9Qxbdz1DtjB6zPfdedfXuXbLh6E9O0sjrV+nrN847fe+uP2Fo35OjXcqL5NsZsPKM3nHeHCvoFJERERmQ2BhqBwwXA4oBJZCOP4RhBTCEKwh7hpiJqo0yrgOHXGXtphLk+cwnVvrUmg5WPQ5WAwYKPl4jmFxIkZnIqo0mrcb+4tITezNl3mgL8vPhgvsL/gcKgYcKgXkgxDPGBwDxoABDNHv0+OVlBYojVdeDpYDduTKhBYCa0l7DosTbhRiJjxOaU7wC50ZlqVibzl/ObTcdzDLV/cM8fxIEWvBc8A1hnJo2T5aZOtIkYcHsjw5WODmFa1sbEnO/hdKZIoaOrSckEk2Hw4wAbKFUbbueoadvdvpG+6lb6iHg8P7yRXG3hJoXnfaR2s15Ppx2vTfeu3/2HzEP9+w8ixuveaTCtUm6c1fx4mv2aK2Ljpbu1jU1s3KxSeyevE6Vi1ZV6shijSsrG8ZKPvkfEvhTcuBCmFIKbTjN+jRR8IxtMZc2mMOrTF32k/Ac4Glt1imrxgFBGl3/Il93KM1ptt0Eam+rB+yO18+XOWzN1+mp1CmvxyQ8y25ICQfRL/mgii0TLiQcBzijqHZc+hMuCyMeyxKuHSnPFakYqxIxelOecedH7ePlfjW/hFeHi2xv+DTWywTdwzLUzG6kzHO60hyzdIWUo7mRBGZmR/357jv4BgvjBTZn/cZ80McA64Bx5i3LPG2gLXRr6G1WBh/KGPGw8zoPd7hKc5ggZ6Cz968T2jhwUM57u4d49TWOO9b3MzZ7SkAHujL8pfb+xjzQ+KOecvDHjM+lhhQDuGe3jH2F3z+8pROVqXfGn6K1BuFlkeQSTYfXkYus2tRWxe3XqfAciru/PMnaj0EEQH80NJT9NmTK7O/4B++WT9YKjPqW3J+SD6MbtSzfhRgxsfDyoTjkHShI+ayKO6xYPyJ+rLxG/WV6RgL4h7HyzEf7s9xb+8Ye/Jl9uXL9JUCWj2HZakYS1MxLl6Y5squJtxp1S2JiBzb67kS9x/M8sxggYPje6kNlH0KgcVzDC4cXtpoxm/S066DHX9/KbQUQ8uIH7AnXybEEoSQch0WxN1oboy7bGhJ8u7FGVan37rveTG03NM7ytf2jPDKWBFLFBy4xuBbeHWsxLbREo8N5nhssMCvr2jjzDZVGonI1P2wL8uXdg2xJ19mxA/xQ4tnDAn37ddYFkg4hmUpj464R8Y1pN1oz8rQwmgQkC1bRoOQvqJPX9GnbDl8teYagztepelby6tjRV7NFumMe5zdnmJ3vsz/+9rA4cDyWBwDSdfw3EiBL+4c5P88pbPiXxuRSlJoKXUjk2zmI+//uAJLEZlTxoKQH/Rl+Ul/nl25EgOlkMGyz0h54kn7+NNz88ZNeswxxJ3o6bkF8kFINrD0FQO2UYqevltojUU36QvjLt1Jj83taS7tzNDycxuz95cCvrJ7iO8eGGNfvnz44jbuGHJByEujRZ4fKfKTgRyPDeb50Io21jWpyZmIzFzZWh46lON7vWO8OFrkUDEgH4Y4RDfHLoYmzxwOJifY8T8If+4T0f12NIeBASd67aGSz8GizwvAYwN57u4ZYUNLkg90t3B+R1Rp9P8fyPLXLx+iGFhiP19pBDhOVGkUhFFVUm/B5683dLI2o/lQRI6vHFpeHC3yhZ2DPDVYoDQ+gZnx6z0LxEx0jbco4XJOR4pTm5OsycRYlooRc0y0NcXhZeKRN1dg2vHz9BV9to2V+HF/lscG8oe31gisxR0/zqWLmvCt5Z92DrI3Xz5uYDnBEM3NDx7K8e2eUX6xS/ffUr8UWkrduHbLh9mw6qxaD0NEZFKeHynwvQNZHh/IcXB8KbYluuF2MGQ856g36RMXpm82ETRGov8ohpa9+TK7c2WeJqqk/OqeIc5dkOKarhbWZOKUQ/j71wb5Vs8whqgi6c3M+D5KMSAfWO7qGWWgFHDbSYtYktRlgIhMj28t3z8wxpd2DtFT9CkEIaEF14n2pozmOBsFl+NVlkk3WqLdEXdJuw5p16HZc7AWRoKAbDlkJAg5WAzoK5Yph1Go6WMp22ie9AwEwP6Cz578GKvTcc7vSPFqtsTf7+inHDKpSqOEMWwbLfL51wf55IZOnON1txCRhrYjW+ab+4a5q2eUfGCjazYTrbSJm6g798p0jPMWpHlnR4qTmhNTO8GbpqCEY2jy4qzOxLlicRPF0PLoQI77D2b56VCevmLAaa0JupMeo+WQ7/WOEZvitkKOgYGSz5MDea5a0nzc1TwitaK7FakLb95TVESknj03XODzrw/y3EiRfBBSDm10I+2Y8Yohe/iJuzu+p9HCeNT5sWn8Jj3jOaRcQ9a3jAUBY37IUDmkp1hmpBxiLfjjN+rGcrhiaMy3DJVL9JUCzm5LsSYT51s9w9x7YASHN4eeRzaxv9Ij/Tm+umeYPzxxwSx8xURkPimGlicH83xp1xDPDRcI7fiSb2OwNlrO3eQ5NHmGrmSMs9uTbGxOsDoTozsVw5tkOOhbS38pYPtokUcH8jw+mGe4FDLsBxRDi2cg5RouX5yhFFr+8fVBDhZ9YpM8vgE8Y3i4P8e/7x/luqUt0/+iiMi8VQwt3z84xud2DLIrVyLlOrgm2s4i6RpObUtyWkuCyzqb2dQ6xaBykhKO4ZKFGS5ZmGF/weee3jEWxqNryW1jZco2uhadKtcYDpUDDhV9OvUgW+qUvjOl5lYtWRd1YxcRqVOhhVezJb66Z4j7D2bJB/bwE2ljopvrlOPQFDO0xTxOa0lwRluSNekYKzIxWjx30ufKBgE9hYCfDRd4uD/HttESWT+6UYcodOxKely8MMO20SLf3DtyeCnkZBiii9Tv9I5yVluSSxZlpvrlEJEG5FvLCyNFvrlvhPsPjI1XPgImuqlPO4ZVmTgnNsXZ3JHiHa1JVs1g2bVnDIsTHosTHlsWZgiBp4fyPNSX4+mhPK9ny5zammRxwmPUD/lB39ikA8sJjoHhcsAzgwWu6WrGU6mRiLzJ/kKZr+0Z5ht7RyjbaA/ewEbz4amtCd7d2cT7u5rpiE3+Om+mupMev72q7fDvX8uWYJp7lTvAoVJAfzlQaCl1S9+ZUlOZZDO3Xvsp7WMpInVrR7bE9w6M8e/7RugvBcQcc/gJuwG6kh4r0zHOaEtyTnuKDc3JI27CPlkZ12VtxmVtJs4vdbcwWA54ZCDPg31ZXhkrsr/gc157GoBtY0W2jhTJeFPrgOsa6C34PDtc5OKFGbQqUkSOJRuEfGPvCHfsGaK3EJByo20niqGlyXO4ZGGaM1uTnLcgzep0vCrLDB3g7LYUZ7elGCgFPHgoS2vMJeUaXh0rEVje1HF38lxj6C/79JUCunTTLiLjHu3PcfvuIR4dyBN3oq0piqGl2XO4flkrVy5prov9cGfUXDHaNhhHDRqljulfZqmZTLKZ37vq43S2ddV6KCIibxNYuP/gGF/cNciLI0WSjkPMMZTHN6Y8qz3JWa1Jzm5Ps6k1SWoGQeWxtMdc3re4ifctbmL7WJEnBgqcNd7ttrcQTPfhOp4x9BTKDPsBbbNYISAic8v20RL/vGuQ+w6OEQIZ1xBYSwBcuCDFL3a1cF5HipZZnEc64i7XdL+xnHtHroyZQaVRfylgQKGliIz7Tu8on9kxwN68T3x8i55iaNnYkuB3VrVz4cL0pLe6qLZTWuKE2GmFl2EInQmXzoSuA6V+6V9mqZlrt3yYzesvqvUwRETeprfg8697h/n3vSOMBSFpN2qqUwhD1mXifKC7hV9YlKE7FZvVca1vSrC+KdovacwP6Sn603467hjoLfqM+qFCSxE5ont6R7l99zDbRovEHINHVGW+MO7y26s7eNeiNJ2J2t9OZKZTYjnOEjXumWzXXRGZ377TO8rfvtLPYDkg4URNxQzwS93N3LK6g8V19nBjYdylI+Yy4odTviL0sXQmPNriug6U+lVfP3HSUNR4R0Tq0TNDBT77+gBPDRaAqAlOYCFm4FeWtXHDshZWpmPT2vC8kjzHkHIMHL6cnrqE49RNpYCI1Jfbdw/xpZ1DDPtv3Lj7Fs7vSPP7a9o5pSVZNwsKT2lKYKc5F4YWOhMei1VpJNLwvn9gjL95uZ+xcnj4+i/tGn5jZRs3r2iry4cbadfhysXNfGXP0JTGF1hYkvQ4ryNVN3O5yJEotBQRERn34KEcf7O9j/1F/3CYF1hYlozxB2vbuXhhpm4uWJOOYVU6jm+n937fWpanPNpiU9sPU0Tmt9BavrxnmM/tGKQUWmLG4Fto8gy/vKyV31zVTrJO5sEJrTGXJQmPg6WAqc5oIZaupDery9tFpP7cd2CMT2w/RNYP8ZzoOqkj5vJf1i7g6q767b8Qcww3Lm/l4f4cO3KlSV2nWsBiuXRRhss7m6o/SJEZ0J2KiIgI8EBflo+/dJCeYkDMGMLxzriXLsrwL+/o5vLOproJLCd0JlxaYw7hNIJLC6xMx0i5uhQQkUhgLV/dM8xndgxQtvZw07ElSY8/XreQj5zQUXeBJUCT5/DB7haCKU6GvrWsSMW5ZFGmSiMTkbngPw5muW1bH/kgfMu8999P6ax8YGkhOxQyuN+v2CGXpTx+b00HGdehFEZ150cTAsXAcnprkt9a2V6xMYhUiyotRUSk4f3HwTFu29ZHNrB4BsqhpTnmcuOyFj5yQkfdLps5tSXJue1pfngoS2IKy7xLoWVjc5LN7akqjk5E5pLAwld2R4FlSFTZUAwtJzXH+diahZy/oH7nC9fAB7pbeGQgzxODedKTaIwWWjAYru5u4lzNhSIN66XRIn+1vY98aHGIrpE6Ex5/cuIitixIz/j4xawlP2YpjFryI5axwZADO3wO7Smx/FRD14lxuk9MkMzM7CHypQszlE9ayO27hnhxtASA50SNF62NHtL41pJ2Ha5Y0sRvrmxjSZ3tzylyJPouFRGRhnZv7xh/tf3Q4YvVYmhZnPC4ZXU7H+hurtvAEmBRwuX6ZS1sHS3SV/QnVQnqW0vKdbhxeQsnNSdmYZQiMhd8ZfcQf79jEDteZZ4PLWe0JvnT9Qs5pcJzReDDwD6fscGAZSfHiSVmPtMuSrj8/poO/tuLB9mdK5F0j96mLLRRMHHlkiZuXt4243OLyNw0WA74n6/2M1B+o8KyJebwn9Z0cNHCqQeWhSxkBwOyQ5bsoCU7ZMkNhWSHLfnhKLAE8GIO+THDd/9hgFSrZeWpCVZsTLD69AwrTp7eQxTPgfctaWZtU4IHDo7xWrbMjmyJ3fkySdewtinB6nScjS0JrlzSRNp1GCgFuCbaYkOkXim0FBGRhvWd3lH++uV+cuPLgYqhZVnK49YTF/KuRZmKBpbWQmHMsm9biYXLXdqWVOaf4AsWpPm1FW18ZscA+SA8ZnDpW7DW8EtLW7hqSf3uzyQis+sHfVm+uHMQsDgGCqHllOYEf7Ju5oFlGMDYQMhof8jYgGX4YEhh1DLcFzLYUyLdMcryU2KsOydN+5LYjM51VluST23s5Is7h/hhX5YQ8Aw4GDDgh/bwPnW/M/5gqsnTFhkijepfdg3x1GCBwNrDFZa/sbKdKxc3cbwFLMWsZeSQZaQvZLQvJDs0XlE5FlLMRp/3yxbHMRgDxuHwAxrjgONCLOkw0JOnb0+enz0Ai1bGWLI6zglnpjn1wjbal8Sn/Hc6qSnOSU0dDJUDegs+h0rRtkdLkh6Lk97hLT4eOpTjSzsHeW9XEzcsbZ3yeURmi0JLERFpSM8MFfiH1wbI+VFgWR6vsPzo2oVcWoH9zfKjltH+kOyAZeRQyNhASH4U+naWsaZE+1I48ewUKzYmiSdndtN8w7IWupMeX9w5yPMjBTxjcA04xhBaS2CjveqWJmP85qo23rO4iVgd7ksnIrNvd67MZ3cMHN4eoxRaVqRjfGztAja0TC2wDHyiYPJAwPDBkOHekOwIlAsh5TyUCpZS3oIxuJ7BLxp+9v1RfnpfmbYuj+61cTZe1MT685pJpqde+WOIts247aRFfLC7mRdGijw3UmDbaIm0a9jUmuK01gSntiTZ2JIgtJZXxqLPLU3NLDAVkbnl3gOjfGv/CIG1nNeR5peXtbAyE6M7GXvbA+BSwTK4P2ToQMhQb8jIwZBizlIuWvwClIqWoEwUdI4HlMaAF4sa3kwIo0JLDGCtBWtxXHBjDkEY0PNqnr0vZ9n6k0Ee+kYvy9anOO3idk7b0k4sMbU5sS3m0naEChgSQkkAACAASURBVMqXx0p8efcQjw/m2ZMvkw1DzmhJsl6rb6ROKbQUEZGGc6gU8I+vD9JT9A93xm0Zr7x5d+fUAktroTAKQwcCRg6GDB8IGOmHUt5SLljKBSjlQ4Iy4Bo8z2H/9jI//Y8RnvquQ0e3ywlnptn0Cy10nZA67pP9I0k4hss6M5zUHOeF4SIvjBZ5drjAzmyJzmSMTa1JTh2/UT8xE6cYWraNFlkQd1mU0KWASKMqh5a/2zHAK2MlXCd62HFyc4LfXt3OeR1HXqJoAUKwIYweChnoDRnqsQztDxgdCPFLEATRDXzoRzfpxrxxM+/F36g0Mg7E4g6jwyH7XynQsyPHCw8P09TucOLmDGe/t4MVJ2dwvalNjB1xl4sWZji/I00htBTGt/9IuQ6p8aqnwMI39ozw2Z2DXL+smd8/YcGMvpYiMnfszpf55t5RBkshZ7Un+ZsNnXTEXbDR9duBnoCBfQGDvZbB/QGFMUvgQ+iP/xqMH2h8bjOA+/OXU5a3NMSxP/e5iT8wxgDjFZlxB9dCOe9zcGeZg3vyvPDIAP/rHxw2nt/O2e9ZxOqNLTiT2Lf3aJo9w2ODeQ4VfZpch20jRb7VM8pH03GSMziuSLXoTkVERBqKBW7fNcRPBnO4GBwDK5Ie1y5r5bqlLUd/3/gFZn7EMtgTMNhjGeoJGekLKeaji9jAt4RlCAIOh4/RjbrBS7zxezdmcBzD0EGfgd4iO7dmeeRbh+hcFee0S1o449IOWhd6TDXBXJ6KsTwV49LODPnAUgpDPMeQch0SjsEAucDypdcH+dd9w3x0bQfXaUmQSMO6Y88QD/ZlSTiGq7qb+fUVbSxNxaKtMWw0lwVlSxhAbtgysD9gcH/IYE/0gMYvR+ElUcEQNiqixBLdxGPAcd64Pzc22k/yf7P35nGSXNWd7/dGRO6ZlbWvvau7qxdt3VpBQgghhDCLxmBgvODxx+vg53U8GPx55o3f+DPzxs987Dcee8zg5Y2xZ+AJbIMRZoyNMUIYJJBA+9JSt3qtfcmqrMot4t73RywZmV3VXb2pqrvPV5/qqMy4ERldkk7dc87vnBOcwhjjq5AUOAmFNlBb9lguN5g8ucw3Pj/BwNYUB+7t5sZ7uunqT5HKWKg1KsUTliJhKdqbYTy7UOM3X5ziULlOQxu+MFbmls4st68SqBUE4crBAP80vcTj8xVsBXd0Z+lO2Jx4zuM7X6iyNKdBNfd9pm0Ud1jq3X7PM47sDq6L7hXYwpagZvCBBgOWH8w0xlBd9qgs1Xn4L0/y8F8fp39LmlvvH+Dgmwbo7E+Rzp1bSGconeDnd3Tzmy9MAZCyLT57coHbujLccxEqjQThYiNBS0EQBOGq4ovji3z25AIWijf35/ipbZ3syif9nmcGPA06cNKry0E50Lhm7pTH3LimtmROc9Ih5qjHnHRYwVFXzVIhywZlK7SnKc97LH6vxuGnSnzh48fYebDALW/tYddNHeQ6EjjJtZeQJy0VlDa1XvPI9DL/6dA0p6ouDW34H8dLXF/MsCd/7j2TBEG4vHlmocbfjJepaMM9fVk+sqsXu6EojWmWFw0Lk5r5cY/ShGF+wqNe8a+Lyh+B9sa/UbImfCPulBvQsTUrKY1UIMm0lcKg0BrGDlc4+fGjPPSJI+y6qciBe3rYeWORroEUmXzivNTpmzIO2vh9fhOW4mTF5dMnSuzOJ321lSAIVyyvLjf4wlgZC98m7cgnMRrGDrnMT2jsmAkI7ZxvoQJMMzETHYP3rNA+RkeFZfl7PcuG2rKOlOrqtGCob/eU8S+OEj8KdPCe1jB2ZIm/+v2X+fx/e4ndN3Vx8J4BdlzbRbE3RaErhb0GteQ7Bws8Ml3h7ybLJC2/hdB/OzLHtR0p+qUCR9hgyH+RgiAIwlXDsUqD/+/kAiXX45auDB/Z3UuvbVOa0FSXfNVkaVwzH/RiW17wd5SRU6w4zUGOvw7VSe0lQLptXbjL9Tem/knLUhgsjNE0qoZnH5nnqa9Nk++xuf4N3dxwdw9D27N09qVJpM6vB+bmrENdG7TxA5uHyg0+faLEh3b1kLNlGIUgXC24Br48WealxRqOUryuO4ujFC9/r8G3/6ZKrWz88sMgCRP2aIuzqrKozaGHMJnjl2Vrz0TrzqQ0MrFOcMrynfnnvzXLU1+fpKPPYd/tXey9tYfNuwsMb8+TzKw92FhM2Pzq7h5+6ckJKlqTthVfmVripq40P7ypE2n5KwhXJg1j+NvxRb4zVyFlK4yh+f+7AYxpUVaGdi441UK4rzP4NspxguCk5QcolUWwtwvuoU3w5V+rtUYZ3+75KsyY7Qs+LAyGYvy9m+dpPK1xXY9qxePZb07x8tMzbNld4M53beHgm4bJdZy9P6+t4Gd3dPFEqcJc3cNWimcWajw8U+EHhmVQo7CxkKClIAiCcFVgDHxtapnH5ysoFAeLaToSFqdecPnGZ6qUZ3TQOF1FvdbanfTwPit/QMsh6uEWljEa3bywfUMcOuqgW663HcXSvMvDf3mKf/rscUZ2Zdn3um523djFpp15+kayWOfQ621rNskv7+zho89NooGMrfjcqUVu6kzzTpkmLghXDc8sVPnCeJmkZUVDyNAwd8pXk9tJULGgYVQmGbxuURjFjhjf5lmRDfUdeALnHQzVpUBpBBA67RjicYPmNyp2b4PjWFiOxXLJ5ZsPneIbD51gcGuW7fs72HZtkZ3XdbF5tEgqfXYX52Axww9tLvIHR2ZJWwpHKf7foyXu6MmyIyvqc0G4Ehmvujy1UOP7BvNsyiToTdpRtYlGo01TAenvzYJ+k3Zo14KApFI0atofrGMgkVCk89Zpe8SW12HVTRgEBYxqU5qjwPiBTs81fpDS83A9j1RO0TucoXMgSedAku6BFF2DKXoG03QPpenqT5PraNq+yoJh4kiDvq0Ouc7TN7Rbsg7/cqSDj708Q862SNmKTx+f5+0DOTKSyBY2EBK0FARBEK4KjlYa/M8TJZLKoqo1vSmHpFLMjWuWSxo78lFNVOrTrpqMO9UtTrqKO+oqUiiFTrtb1zQqpqnUDFLnRpnWzatpflI8GJBIKrSxGDtc5ugL8/xDSrFlT55t+zrYfm0n11zfxeCWwpoas7+xN8s7hzr49IkSWdtXPv3Xw3Pc1p2hPynbAkG40ln2NA+eXODYcoOk5auuE6HUKGbkIpukWo8KXz1O6F8HAUjbUSQzVnMwRZgEiqmRjNfsgYkOTKFqWry4045SWEajo9JMhTZB/2DtP5DRhsW5GicPL2InFX0jWYbdszSWC7AUvHdTBw/PLPF8oDidrLl8YazMz+/oFrWlIFyBFB2bX7imm6GsQ3esDlx7+IZNG9/8WIpEysKy1ekJ7cCuuVUDWmOMb6HiLYNWwpjg/lqhlH9sNgBuLqrXPJwk9G9N07spSe/mFH2bUxR7E3T0JCj2Jin2JUnGyrjrFViY1Ewe8licMSzNa6qLhsljDRr1eYZ3O4y+Lsfmfc0J4Y7yexkfrTT46tQScw3NS0t1/nm2wpult6WwgRDvRBAEQbjicY3h0ycWOLRUJxE41MnAI433V4s2mys46WFgUVmtm9JU1vYVmUEZpbJanfTwwkhMGfa7jJWHW0r5/YqUFXn0oaOu8TfTnjZ4nu/UN1yPmYkKlgOpnM3gtnxMEXBmsrbF+zd18O25ZY5XGjhKcbLa4KGxMj++tfM8f8KCIFwuTFT9sbcf3t3DnkKKwZTDpowTBCk1xhi0bhpGY3wHW1kWto3vxAeqo1pZo43vtDsW2EnVTPYEdq9FWa6DEsjAaddGtWSGWsrDjcEL1mtj0Bg6uh0GdxQYvibL0I4sQzvydHQmSGVtUlmbZMrGSfiBiHrFUJowHH6iyub9DsOjp6sn+5I2P7K5yEeencTC/73wuVOL/PDmIr3S21IQrjg6Ehb73BSzxzSHxl1mTnrsvCVB9yZfJam1v+mzLXBSFrZjEU9Vh3s5bUxgKwObZaxYstugAq168xjkajR+CTqBvQuzQ8r/7ETa4s739XPg3i7SeYtsh0224LT0Na8uwswxTWm8QWlSszhrqFcMjaqhXoFG1eC5BmUptAcvfafCs193efxvy/RuSbD7tizX3p2ja9BhMOXwkd29/MtNRR6dq/Cl8UX+5Ogc9/TmzqtfsCBcCiRoKQiCIFzxzNQ0i67Hv9nZw2g+yXDaYSTt9/zR2t94hplyoOmkKwvL8Z10ywbLUTQqhkbN87eiymAnY0HKFZx08EvDtfZ7FqHbnHRi5eHGL00ywYZYa4OVgP4tmZiTnqV/c5Zs3iGVs0mlfUfdcvwNbbVsmDziMf5KnV23JekaOv1X/Z58kgeGCvzuy7NYlp9t/8zJBd430kHekZIgQbiS2ZpL8NE9vSSVwkb5mRGLqMwxdKItW5FI29gJC6VMlOE5rT9v+BW8PpPSqOUaYseova+fwLFtRb4nxdA1KYZ3pdm0K8vIaJZCp4Od8NVPtmNFz+LWYHbMMHfKY36szuyYprKg0S5Uyx7/+BczdA1YHHxbgX135sh12lH7jzf15fjonj4+c6LE0YrLfMPjb8YWJYkjCFcAtbJhblwzP6GZH/MHK9aWDW4DvIahvgzDexy62/pTGB0cV7Bn7eYrvu877VzsGF8f9kBvTjQz2Lbirvf1cN9P9Ee9y5fnYfxlj7mxBvOnNAszft9zrxGUjzfA8+KDf/wvJ6mixHsipajXYPpEnekTdY58r8LXPzXPyGiSA/cV2Pf6HNd1pNjXkeLdwwVeWaoz73p0JSRxI2wMJGgpCIIgXPH0pW1+fU8vCaVwaA0aAtFrpRSJtIWTVIF6stVJVwpcZU67/qxOeuwzWlAE/dz8XWYyY9MzkmZoV5rha9JsHs0xsC1NKmtj2RaOo1pKwKuLMHNcM39KMzfe8DfjFYPxFKWpOv/w36cZGU1w8P4Cu27JkspakaP+npEObKX461MLjNc8pmoeD40v8i83FdfwlxEE4XJCe00H123A0izMnXKZG9NMH/c4+H0phnbbLUojFH7SxmrRGQUOt4rUkJHSSF+40shoQ9dQgrd/sJ+D93URRjO1Bt0Az4XakqE0qZkf823e/LimPKejIAM0bbIKzH2tbDhyqsqRJ6t8MT/D6G1Zbrgvz+a9KTIFm/ePdPDekQ4en6/wuVOLPDKzxAc2F5tl84IgXFbMT2i+9mdVakvNsm2jm8HIqDBFEUs8m2hN2L6nucGLb+KCBHcwVCeqpDHx/eEK18UG8aBUkDBvnlcW3PjmIkpZPPHFGkeecHFdwpx287Niz+/3Pz/7z0Mpoh7ojZphfsKlNOXy4jcr5Los9t6R4+bvKzC8M8XNHZkVe7oLwnohQUtBEC5r3vubt17wPT7z+U/5x48+dsH3utL46pMP8aYb3rHej3FeaO1n0b3A0V2eg7kxl/kxw+SrHqN3OOy6PRE40YFDrUAFikpjTOSk+03Rgx5qpqmabHfQYWVn3d8wB86+1XqdCUrGb3xTkXf8b4N0DzX7DXlu4Kh7hvK8YX7cY35cU5owlCY8KovNzW48cGoFn7E0r3nua8s8/8gyuU6b/XfluO6eHEM7UxTzFj++tZMf3drJN2eX+fypRR6eWeL9mzqiv4sgCJcvbh3mxjSVBT/ItzjtMT9hWJjSuPWmIkd7QSAxrjSKyYJWd9ljR73CeyscIzWSDgadtSuNHIu3/Fg/B+/rpjynWZrVlOcMC5OahSnN/KRhaU6jvaC3HE2FURwVC0hEry3/WC1rvvf3izzxd4v0jCS49o05dt+epW9rkpv609yyL8O81ixrQ1GCloJwWdKoGkoTmkS69f/hswXjIjsVV08GQvP2ZEh4Ljy2KCnV6cf2ezYfyj9YtqJnU9KvmDmsqZb9xFF83cUo2VbBXhf8/e/CtMejn1/g0c8tMHhNkuvfnGfP63MU+23yXaK2FNYfCVoKgiAIqzI1f4rf+OQH+Y0f/cP1fpQ14TVg9pTvpC9M+U56acJQmtI0ak3n1qsbPDf2KzDYbIabytjbLUc43ek+q0Mfy/ArC78UM3DUlVE0GoZdN+d4+weH6BxIMnvSo7IIC1OGxSmP0pQfcKiVm+qnlRx11f698gdNEGzQy3Me3/qrEt/8qxID25Nc96YcO2/O0rM5wZ29Wd7QnWXO0yy6ho5zmEguCMLGpDSp+fIfVvBcgxX02lXWCsqcFoVioByy2lSQ/tnYReepNDKB0sgAuk1pZEBZhtFb81TLhiceqnP0SReDP3k8fHZlrU1ZtBq+w+63/Jgfd/nqJ+f4+qdLbN6fYvetWbbsSzGyO0XHgLhJgnBZc65bGRPYNIuo3257cDL+fdjXMkxMrxSUbA9qhjZWqUClbprR0Jb2QiskYy4V8STP+Ct1Trw4w5f/eJadBzPsfUOWLfvS9G5OkC1KAFNYH+S3sSAIgnBGnj36OP/9y7/Lj933y+v9KGdlYXptTrqObQbDDSeYYJqtiTneK2iFTFheZIIA5Bp0SOFnaEC1lgN5rqF/W4qekSTHnvH4zudrlGd1NHlcBQN+rAv8ja0UqCAYOflqg//18VnSuXm2XJdm1y1ZNu9NMbwzRaFPNqWCcCWgPYNbNyQz5+D5Gt8RJypfbFMEtS+PysPD/sBnWx+Un0fq88Bpx0TZmEyHjVuDpXmDshXOJfRWlAXJjF/WfvTpKoefqFDosRkZTbF5b5rtN6bZen2abIfYRUG40jGANqB0LJa4guo8Gs4YKzePbF+YBG+7b/Rat91XmeiOG2HwjbIgEQxUe+nRZZ79+hJdAw47bsrw9p/roXs4sd6PKFyFSNBSEARBOCtffPRT7Nt6kFtH37jej3JGtOeXhLeXA50REysPt1RTGbmK491SHs6ZHfToucI+RmFpT7ixDXomhUGF5TlNo2ZwUuqSbl4tG1JZC63hle9UeOlbyxT7HEb2pNi0J832A2m2XpsmU5CmRoJwOXOufckiR9xqKsSxWd1pj5dRrtVpD5XnKrh/6LQbc1oJ5mvlxCsFTkLhJBTVsualRyscerRCccChd1OCzdem2H9Xnq3XpbHELArClUeQWA6VlvG2PpjTl0Iz8WLCaGeUBD/tkqgVkQ7UnGEPX39jeCn/YueJAjuhsBOKpZLmO19c5IZ78hK0FNYFCVoKgiAIa+K3H/wQv/1Tf8G2wd3r/Shn5hw3fy2BRx3tO1uc9HjVuAnKu8NelCs56CteZ1pbxoXl4f4bzYE/r2WmPZww6SQVywsez39jmRe/WaHzSzY9mxJs2Z9m/105tl6blqbsgnA1ECgtQ6URcac9ZtBC06V1TGkZLAxF6qGAMrzOVy75pZHaGH8IWaS0DO67hiTQpcYKSscBFmc8SpMuR5+p8vgXy3zg/xpgx4HM+j6gIAiXhHgQMv51WgRytfWcxYbFFeax62NFORsSy4ZkWqG9DfqAwhWPuCCCIAjCmvmNP/8gS9XF9X6Mi0uQ9fZLG5s7VGOM737HjmDQprnW6NY1ZpXrjG4692FpZPwBzGo74tcQy1Yk0wonCQtTHq98p8Ijn5rnkx8e59Wnq+v9eIIgXGraSiHhNFN1+trwpQkEk/H3Vziu2nkj7Ne7wRRHlu0ndoyBxRmXhSl3vR9JEIRLRKguN97aAojRRG+9xvUQqDlpDi9bpTf5hmSjP59wxSJBS0EQBGHNLFUX+Y0//+B6P8bFZSVH/AxOd7R0pXOrrF/V1w+m5m60ad2ho64NLEy7LEw21vuRBEF4DdBBMkZHiRzO/BWuC8seOfP6aNBFLFHUHPizcZVGYX9kQRCuXHz7pf1Ucsw+Xawv2t8L+mFGVTgb1P4Jwnojv34FQRCEc+LV8Zf47Qc/tN6PcdEwxJ1ufVYnnbiTvhanvt1JD+vPw9JIooLKDUc4BEgQhKuEeDnkWpRD8WDjWpVGpu26y0lpJAjClcs52rP2Pr7ntD7+GTGluZhAQTgdcUUEQRCEc+axF7/GV598aL0f4+JwgU73mj8m9jlhSVCosNxoSktBEK5OIqXRRVYYrao0CmyoCpx2Y8RpFwRhfQgHLa41Ka11q9rcGHXm9aep0w3tgcyNmcIWhPVFBvEIgiAEvPc3bz3rms989LHX4EkuLg9+7RPnfe1zR7+76rn/+jf/nv7iEPu33XTe998I+E56s4673Zk+bX3ofMfWn/Uz2tZF36roCaJnEQRBWC+aqnCiSd5nStCE/XrDAT6+0766JQvXG238wTw65rSHay7uX0kQBGHtxO1RuzFqU4ZDuzLdrLwu9jpKfMeWRzPLJGMjCCsiQUtBEIRz4MGnfne9H+Gc+czDn7pk9/6Pn/5F7r37fnLZ3CX7jDi/9z/ewC/88Ncv6j3DrDcEG8dYdn3l9b7T7W8y1Zp6EJmYk66Cibz+ptXfybbEMAVBENYRo1ldTd7mjEcKIQ3o1deFr+NK9dgwcnHaBUFYd0I1pPIM2lJBb8tQAh5YKQ0ohcJEPYANBMN1/MSNb+Tar1NR0jtMCsnmTxDWhpSHC4IgCOdNvVHnn77xlfV+jAtCgb8JjZeJx2l73dKPSLM6ceVQ6NRLebggCBuZQBWuvSB5g4neCxMtzcE5oQMeL//WzYRM23VhNkgHAyh0e6CT1ZNFgiAIl5woCBkflGNi55rrdLQXbA7tCXtc+Pu99usMykB8wI+OV/acIVkuCFc7ErQUBEEQLojl5SX+6ZF/XO/HOG9MUNaog5LIwBc/zdmOhuZEPY8I+hG1T79d4bq4cx8GSJtPsGEH8QiCcHXh2z/VorSMjtGCZjVkXDmJUX55OK3rm2tU2/qYKYwNohAEQVgPov6TYdDRxN4zrWtChXksV7PiupVet55rpq3F/gnCykjQUhAEQbhgpmYmePaFp9f7Mc6fwOGOtZc8zdlu73PUdOhVixO/4nW0BQBClP+HKC0FQdgQ6LjSSAf2KqYYimygidTmodJIm7Z17a8DpVFcmdlUHSFKI0EQ1pfQJmna1JLN861VNMHasK48tkdc6ToDzTLySJ1pmv0uxf4JwopI0FIQBEG4KDz34jOcHDux3o9xzrSXN7YO2jGnO+2hkx5sbsNzZ7quOYkytlENVZkgSktBEDYEkVrII2qbcUalUUxtxCrrVlUo6dBCitJIEIT1x7QlkOPbPz/oGJum05LkVi3nznRdy26vLYmtlLS3FISVkKClIAiCcNH458e+znxpbr0f49yJOdHR65Wc7/B06HDH153BaSfuqAflQNLTUhCEjUbYGqNp21qVRsa0et2ta+PrWPE6QyBIakkQmag83Bhx2gVBWB/CJLaOJZqJ26q25LaJ1upAmb7yupbXWrd9RlvSZ71/CIKwAZGgpSAIgnBR+do3/pF6o77ej7FmoqqeaEPZmiWP96v0e7aFm8xmSWPLLnOF6zThZ7QpMhUtN5DNqiAI60ncRkXOdkwl3jJ4Qreea1Ggn+m6Nqf/tIDnuv4EBEG4elFBy4tY4uUMS1vV42tLt7T3DI738hWluSCsjAQtBUEQhItKvVHnnx99ZL0fY+20Oelhb6LTnG2zgnPe/v5q17U797HzoCInXfargiCsN5GSXEc+9coofAc/6v+2xg+I31+cdkEQNgin7+04y9e5rW/fT7ZIK9UaAqWCcJUiQUtBEAThojM1M8E/P/b19X6MtRN3vM+CiZeSr2G9f9EKnyHl4YIgbDDiQ3X0Gpzw5jrdUup4JqddBw67jmTu8c9ft7+6IAhXOaFdakk0n+lLN0vEz7o2dm8dXhcrCxeJuSCsjrPeDyAIgiBcmWSzufV+hDUR9jBCgWVUq4N92mIip1sBWq/Nyfb7uGmUUc2K8NhZGcQjCMJGIWqPsRazFHe6z+Hexje5rR+hRGkpCMI6EiaXrbZAYig5j5fFhHvF2CCyaEl8fdsxUpnHlJUq7Ocr9k8QVkSCloIgCMJFp7PYxb7Ra9f7Mc6NMwUr48tCJ51z2GCa5ldLLED5f4jSUhCEjUCkMFKhc90sezzj+jal0ar3j6uYVLOsPLxElJaCIKwP/u4s6m0eV4mHp+NLVazUO2YnIxu2wrHdRhrdmrIW+ycIKyNBS0EQBOGiks3meP2tbyCZSK73o6wJP1NuYq/P4KSHm07PT6mbYP1ZPyPsY9nyoUQKS1FaCoKwIWh31GPvr6o0ipU3rklptEKQUpRGgiCsN5G6cqWvFS84h7Xt10CrPcW3fxvRBGrtfylrIz6dcDUgQUtBEAThopFMJLnx2oPkLpPScKC1n1DcKV/J6abN4aZt7SrXxZ36+BplpKelIAgbhZhqyGqWPYYDedA07VzwvWEFpVG4rv0YVxoFLTkipVHMBG5Ya3gOZfCCIFyeaG1QFigd2CuCJPYKSRttmv0sdbg2KsXhtKMx/v3DlkQmMCphr/PTkkXriDHguQbLUuS7bHq3OAztvDzECMKVhwQtBUEQhIvG9dceZGRo03o/xjkROdCAipzqNic9dmxOfaSlJxGxATst19F6jf86tjb+LJfg73ehrKVkXhCEK4eW8kgduOFtNq3Zn22FgRWYFW1n6LSH62FjO+0hxoDXMCTTimKfuE6CcKUSKceDthX+m23H8PswGBlfv5KKMn5sXxPYvY2kNDca3IbBdhQD25Ns2Z/mhnvz7Hl9dr0fTbiKkd+8giAIwkVh1zWjbN+yfb0f47xoDUI2exqd5nTbsQAk4QY3llWH1dVF8RJ0Vi4P3wD71YjIUc8oiv2yXRCEq4L2ku/gvZZj+H3UIqNNTX4mp52V772RnHaAqP+wBx29NgfeVuDG+/IM7kit95MJgnBJUNGezrTbwbbqmqiwJtZOKL42viUMr1Mt682Kyu0WG/gaZ2+0BrdmSOctdhxIs/1Ahv1vzDGyW2yesP6IFyIIgiBcMCNDmy6/wTsh8Y1m3OGGlZ3u2EbztJLvM1x3WZSHB5tt7Rk6BxwO3t/B9ffmGdwhixc3ZgAAIABJREFUJUGCcOWj0EH5olJgac7utAdKSx1OxD2b0x4b3ONf3/oE66nq9oOUBmUpnISiezjB697TwXX35Ml32ihr/Z5NEIRzw2ho1PzyZmWDddb/f2OtKyzQWkUG0LdLzfpwE3wf2suoN3q0Nt6pXEWvw6BoWB6uY/YSBQqDW/fL01H+8ztJhWVxyeyP1tCoajr6HPa+Ncvo7Vl23JimOJi4NB8oCOeBBC0FQRCECyKbzXHzgdsum8E77YQ9huI9h+J13/EqoKh8XPvvamVaHPS4o97MrBM49QZ/z9keoDQt29vXmvD5lKVIJBW9m5O8/gc62HdXjlxRHHVBuGwx4DXAdnyHd80qxigpo9rfOu116Ii3XHfGa1RwbyKlZuzt6BlVMFncc/1zSl06FabWoF0/OFDoc9i0J81t7yyw586c2D9BuEwpDli84YfSzJ3SzJzUzI97aFdFtlApVixv8feEYIVqaxQmClP6RJe19f1tzUuffl14fxPuMcMENspPGGvFiecrjN5e4OA7Ukwe8Zgf08yNeSxMaYxR/rOfiz1fhdDudY8kuOltBXa/LsvwjiSpvIUBTtVchlMSKhI2BvJfoiAIgnDeJBNJ7thIk8Iv2EkPN56tYcQ2oWVz4q053UE/7ToV/dF01Ft2vqpFaem5oD1aN9aXgHDDmkj7jvqW/Rlue1eBXbdlN1aduiAI50UyqxgetalXDdVFQ23J+E5voNpRVvv/6rG+lEH/3mbdI6w0iSJc17oeWi1hTKEUDqyIl0fG1OtaG+bG6vRtzjC8xwYL6hVDtWyoLwdhT8v/O5xdOXVmtGfwXEhlFQO7Umw/mOGW+wsMjaYwCiqeJotELQXhciSVVex+XYJGzdCo+nZkfkwzc0qzMOExN+bbFWPiynH/S1uxPuShrYrZtKi1TxiwjLUAaunXS9t1JlSbE+wFW/eanqv56qem6Nuaon9bkv5tFo2qr7isLRvmThlmTrjMHNPMT2m8RizRE/1xBsK/kobN+1Lc9kAHu27NUuyzsRzF8WqDh47M8+hclX+7q0eClsKGQf5LFARBuMK5kLLtqekppmYmVj1/84Hb6Cx2nff9LzbJDAyP2jSqUC1rqksGo2OZ9RUCmS1DchR+vc6KTnoQpNSxTWmLzGiF0ZLxzwhKjiKHPtgEKwVLpYaf8d5sMzxqU57zAwzVssGtmchJvxjZdc81eB5kOywGt6e45pYMN99XoG9HEo3vqGdscdQF4XKn2G/x5p9MU5rUlCYNC1Oa8oxmqWSoLBiWS4Z6rTl0B4BAZYRlsCLp+BmURsF6YwLTqaK3V1caaeOXXqqm3Q2VRsaDxx6a4+0/m+aG+5LsuwvmxzXzkx7laUN5zrA0p1mcNVQXNcaAZZ9b+aTn+na1OOCw/cYMu27KsO+uHJ2DDhVjeLxU5ZmFGgc701zXIf3cBOFyJpFSJFKQLSo6By22XO9PBtcalhcMM8c9iv1Wiw30W/colhddUp5DMuVnkKPAYHvfybUUy0SGMGx2TvMreEspxcvfKfN7P3OI0Vvz7Lgxy44b83QPpUgXFJ0DFtsP2EHpO8ye0ky96jJ11FeSeg2arTpifdW1BozBSVvsvDnDne/vZMv+FMm0n7l6olTlT4/O8UypRtnVXFtMsTe/QcQIgoAELQVBECI+89HH1vsRLg3Xn/+lD37tE3zm4T9e8dzbb/tBfuy+Xz7/m58Hg9e9+4znC70W9/5UmtKkoTSpfSd9VrM0H3PSqyba2IX435/ZSYdmvDG6VrU78auXA2njb5TDgRNhT0snqTj6TIWXv7vE7lvyvPFH0yzNGebGg+ef8Z308pymPG9oLJsggKmw7DUGMQ24rsFrGHo2JdhxIMOuWzLsuzNHrstmyWi+NVvhpXKdW7vT7MmLoy4IVwJOUtGzyaZnk//arRkqi1BZ1FQWDEvzhtKEJtuhIlElGgj6udWrGqUUTsKKtciIqYjCqbmxZM+qSiMVrm+WRpqgH1xzGjk8+tAc5XmX0dtzDO/MMLA1Td82v7+a8WBxxreHS/OGhSkTBGV9W48JbOMKSlLtGlzXMLgjxbVvzLHz5gyb96XJFi0m6y6fPlni8bkqTy9UMcADQ5su5b8aQRBeYwww57mUXENnwiLTY7Gtzw+HeK5vw7Q2KAP1qke96venUJYhmXZIpi0SGZtk2sa2FVobtNZR4iaydnGjFjv6/Sw12gOUn1RvsZmB8rI03eCxL07zrb/VaO3R0eewdW+Wbdfm2X5tB32b0yQzNn1bbYZ2+cFFrwFzYx7Txw0zJzzmxjwaFVguQeeAzdY3d/D693We1qP86HKd//ulaZ5dqJGwfIv5gc1F7A0zFU0QJGgpCIIgnAd33/CO1zxguVbshKJ7RNE94stuvHropBsqi76jOz+uKfb65yO1pFFgKdy6oVHTOAkrCCwSWxdz6kOVUHh+hdKh4EXzGitUdgbnFFiOYvpEnc/9P6e4/k0dbN2fYXBHmk17U7DXBqBegcVpzdJ84KhPho66R7Vs/AJz+3QlpsGfAK4NbNmfZv9dOa45kGZkNEUqZ3Gs0uCzxxf53nyVpxdqFByL94wULuq/D0EQNg52SpFIagq9dvSeWwfLbpZ3hw60W4fZsSq2Y2HbkEjZJNIWibRNIqWwAifcGB2pNZv2bXWnPVK3Eygu2wKdlbLHow9N8/Qjs+S7LLJFi+7hJJt2Z9myJ8em0TzDo80gZm3ZUF0yVBb98s/ZU5q5MT/po72g3FMbNu9Pccu7OthxY5a+LQms4EcwU/f4zy/P8r8mylS1wVbwS9f00Jlo/owEQbj8UUCpofmp747RlbC5riPFnkKKewdydCmrOXQsbrYA4ylqSx7VsuvfRymclIXxQnm5QXu+gjvqwWuFn0jrfaN9Y5C8iSnNVdBo00JhlPIT6ZZiYbrO9/6pwhP/OIWnXbJFm027c2zamWPzaIE9t/TQN5Kld4tN7xYIQzzz45qjT9XYtG+Ank2nh320MXx5coknS1WytoUGdmQT3NmTu/g/fEG4ACRoKQiCIJwT2wZ3b9iA5UrYSYXTrenrsSDoT+Y1mudNzEn3PENpusbiXB3bVr6TnlKRs27ZKnDqNRiFsWjLqsNpznrcSQ+Co6E6Ka5EOv7CEmOHy+S7bLKdFrkum4GtKTbvybFlb47B7Tl6NjvR81eX/BLypTnD3CnN7JhHadwvm8TxVUWWBXvvzHLT93WweW+anhEnesyjyw0+dmiGr88sUTeQthQ/ubWTnJSGC8IViwKOLbv8+rOTjOZTXF9McUNnmp3JJMol6nfmmziDCR1xDMryAmdc+fYxbaFdXy2ko3LHWOlj+ImhOQwDANpgPFqascWddtu2sCxDddFjqVTH8zzUU5rvfRUSGUUyBZ2DSbbuK7DjuiLb93fQO5ylcxAGd9p4NV9ZXq8YZk5oXnm8ys3v6mP7jWlSeeu0XpjfnqvwhfEFLBQpS9Hh2Hz/sCRvBOFKZEs2yQc2F/mtQ9O8UK5R8TSFxBD39+TwXEOtokkahWWrIPB4eu23MYZ6xQMCM2agsugy1VjGTlg4SQs7obAdhWVb/tEBK6EwKH8PSev+M3zt7wj9f4KqbiBsg6FQWrE4U+f5x6qUpiuUF2p09CTpG8me9pydgxadg5lVfxaHynX+4niJTKCwrHuGH95cJCkqS2GDIUFLQRAEYc3k0gU+9N7fJpe+vBy62brm3zx1im2ZJNcX01zfmWJ3Pokd9lGLlXu7no4c7+pS4KQrfwObSFloL1QMBdfp4MJ4v6KW+nAVlT1G54IvFTSAs5QikbQxxmN+qs7shMYzHi89bkikIJFWpHMWA9vSbN3fwfZrO9i6p4PukSTdIzCy18arOzQaUFsyjB1yGTvk8ZafHmR4NEkyY51WRv6VqTL/OF0mqSzSFgykHB4Yurz+vQqCcO5sSifYX0jx4MkF/m7SwjWGj103wN2dWYwHbkODFQ/uhaXgQZrFNXj45ZPEllTLLrNjFZykRSJl4ySDphnK/0NZJhIXRcpKvZrTDsrGd9JtC4OhUdfUqy4L2mXiRJlD350hnbPoHEhy34/s4A0PbEYpcNLgoEjnFR19Fluvz0eqynYmqi5//OocCoWtFHVtePdwgaIjKktBuBJxFNw3kOPLk0s8VaqSdyyOLtexBvLsvSNLadJl5mSD6RMulUWNZQcBQ2fldjxhztqtG9y6jtoIKQW2o7ATftDSdiyclMJzNVqbZnshE+vv23Lj5rdK+eXrjZpHKm9x8I5+9t7WzejNXWzeff77tj89Ns9s3SNpKVxj2FNI8obe3CUbACkI54sELQVBEIQ1kUsX+Nl3/R/0dw6t96OcM31Jm9s6s/zJsTm+MlWmbgwf3t3LD20qgga3YdoG9bQ56fh9MBtVr6VJmvbwnfSURSJlkUjazXsohVImWq9N0DMz6OMW4lenByeU8bP7tsIyFtp41JY1lbLL3JTm5OESTz0ySTpvsWVPngf+9Sg7r+/yN9UZRSID2Q5F52CSvXcmVx1M8exCjQdPLuIohaXAM/DekQ4ZwCMIVwFZW/HekQ4enlliuq7RxjBedUFB94hD13CCekVTXdR4LtEQMMtSrTalzcmu1zS1yXr02rIgkbKCIKbl28mk1eydSWtuJxxEYVDRIIyWibja4Lka5Vj09KcYGc1y2/2D3HTPAInU6kHG1QKW2sDnxxd5sVwnaSk8A8WEzTsHC1jitAvCFctQOsH3Dxd4oVxDG/jCWJmbuzLcckuG4V1JStMeizMus6dcJg7XGX+lzviROuUZzw9g2vj7tCDwGI85KogGkrkNg9vwopYZSqlmXjtehq7DBE/M/imFMn5ri3pd0z2Y4MY3D7H/9V1s2ZOn2Hthvce/NFHmK1NLJC0/Ce8oxU9s7aInKQkbYeMhQUtBEARhTbz3rp/k1tE3rvdjnBcJpXjfpg6+MlXmeMWlYWCy6lI3hq5Bh+6RBNVFj0pZ06gG/YjsFZx0aHHUjYHFmUZzs6rASSiclE0i6fc8SqbtqM+baXPyo56ZSmGMAiwUwcjH4JzW/vCIdN6mcyDDzgNF7njHMLsOrD61XcWnW7ZR8TSfG1vkeKVBOnDUe5I27xoUlaUgXC3sKaR493AHf3hkDkcp/n5yibt7c9z+QIFt16Y4+bLvqM+eclmcdlmc9Z346qLBDlRHlq2aipz20eLGT+pUlz1Y9kD7+kllqZbJ45HSKDaIIiqPjLXtqNc06Zxiy94i268vcPNb+tl+bYffsuM8ebFc48+PlUgGEUrPGH50c5HNWXGPBOFKRgFv6c/x1eklvja1zFjV5d89N8l7Roq8f0sHQ51Jhnb6A2vqFU1lUVMta+bHXY6/UOXEC3VOPl9jYcZFKRXrYdk0g6cXlYd9g2Pn/Kx16/mwNFwbPNewaU+O29/Zy+htRXqGUiTTFx5UPLxU57+8MoNn/KZJFa1530iRe/pzSOpa2IjIb2VBEAThrLz9th/k7bf94Ho/xgUxknH4wNZO/sMLUyQseGR2mbcM5Nl/d46BbYnISZ854bIwFTjpsy7LJY1lK2zbV+yoUILTPiI8mIxbr/kOdtjDzSjjBz8JFJax/m4mKIOMNqpGE25ZG3WN52k6BxJsGu1k721d3HRvH92D6Qv6OTw2V+WvxxZIxaREP7Otk54zKJUEQbiysBS8dSDP12aWeW6hxnfnq/yHF6b4wNZObh3NMDTqq3g81zA/4TJ93GX2RIOZUw1mTgZfJ1yqZe0neAIbqQLpUVtn30B55AcndaCgDMso49KkptIoCFZWPTqHE+y+qYvdNxcZvbWTvk0XZgPBH8bxsUMzLLoaW/nJnNd1Z3nXcAFHaiMF4YqnM2HzjoE8z5RqLLiaU1WXPzg8y6Fynf9zb1+0R0pmLJIZi2I/DOxIsvPWjF8KXjPMTbgcf67K8WdqHHuuyvy45yepo8Fksda9YTK5bciPf5LoGpQikbTYcTDPG36gl+3X5cnknVUrZ86VJVfzH1+c4WTVxVGKhjbszif5gZECaZGYCxsUCVoKgiAIZ2T/1pt4710/ud6PcVF4Y0+Wf+jO8I2ZZQ6VG/zWi9P8yJZO7t6WpXdbkhvu9TeOCzOBk36ywewpl9mTdWZOukyfbFCe8UvEbUdhWcHU3cDJhjZnPXDU/XJw1VpGFOtpGSotFYpGTWPQbN6bY/fNHYzeUmTXgSLp/IUHFY8vu/znV2ZwNZGjfv9AgfsHCqsJMwVBuELZmUvy9oECR5YauNrw8MwyL5Tr/OCmDn5ym6/kth1Fz0iCnpEEkMFow9K8pjTlsjDlMXuq4ZdPHqkzcbjO0lwYxAyUmDRn8xB9b1reCyfoEjj5nmvwtGHomgw3vLmT3TcX2LwnRzp38RIrv394hm/PVUgEavP+lMMHthQZTIlrJAhXC28bLPBkqcaDJxeChAl8ebLM1myCn97Wib1CAsPvT6lIZSHXZbNpT4rb/4WffC5NuRx7psaxZ6scf7bG7FgDt25oVA2NhvF78QTDzFQwZVx74GlNMqPIFBNc+8YCtz3QxdCONNZFDiK6xvA7L8/weKmCrfy6noSleGCog+s6LjwZJAiXCvnNLAjCZc1nPvoYAA8+9bvnfY/3XX/5TMJ+renrHOZDt/3gZTd4ZzUG0w7vHu7g2YUaFc/w3VKVV1+c4tHZHB/Z3UsiKAcv9jkU+xyuOehv4qplj9KUx+K0x9y4y+SRGuNHGkwcqTN3ysVgms3aVWyAbvwYyI9Cpx2IhlJoDY26JplV3HBHF9fe1cn2a/MMbEtfUPljnKqn+a1DUxwK+re5xrAlm+THthTpSEhBkCBcjbxnpMB35io8PLNMwlJM1lz+9Og8g2mHd6zQMkJZiny3Tb7bZmTUf6+27JdPVhY95k65nHyxxokXapx8sUZp2sUK+7hZQdImzOyEh6BE0h9OYdj7+jw3va2T7TfkKPYmcRIX13H/s2PzfG5sETsIUhgM9w8UeGNv7qJ+jiAIGxsF/OLObk7VXP4p6O+ojeEvjpfoS9q8c6jQUpWy6n0svwNv12CCrsEEN9ybB6C6pDn+bI3jz1c58XyN2VONoNTcoxL0DC70WAzsyLL/jXlufluRbPHSVL14xvDpEyW+NFGOsuuuNtzTl+N9Ix2X5DMF4WIhQUtBEARhVd50wzvW+xEuOm/uy/H4fJXPnFwgYSlKDc1fnVqkK2nzczu6V7wmnbdJ520Gtvuv3Xo+ctLLcx5jL9UiR33yWAPdCFSWwVCeuKMefR9M0PUahuKAzYH7urj+TZ30bU2RL178X88fe3mGR2aW/abrACjeP9LB9UXJrgvC1Uretvi10V7Gnhrn0KKf0FjyNH9weI7+lMOtXZmz3iOVtUhlLToHHIZ2phh9fdZXF9UMpSmPo09XOfaM/7Uw5eJ5Qfmkxu/ga0G2w+a6uzu47YFO+rYmSWbtS6L+/ur0Mp88XqKhTTQt/LqOFD+6pShqc0G4CsnaFr+2u5epmstzCzUSlmKm7vLgyQVe15NlJN3cj1U9Q8MYkpZaUzAznbPYdWuGXbf6drReM4y9VGPiSI0Tz9coz2muuyfPgbfkV+1DfjHQBv7y1CJ/9Oo8S67Gsfyy8H2FFB/c3kXekcS1sLGRoKUgCIJwVZG0FD+3o5uTlUYUxNMGPn1igYGUw3vXkHF2kopCj02hx6Z/G2y/MUOjZnDrmkrZcOrFGkefqXL82Srjr9T9ku/QSQ96HFmOYmh7itd9fyd778iT63KwnUuza/3k8RIPjZd9xRNQ8wxv7s/xL4avDAWtIAjnz3Da4d/t6eWXnppgpu7hKMWx5Qa/8/IMH7t2kE2Zprtg8G2YpVb3sePlk/kum5HdSV7/bt+uzo43OPp0lRMv1Dj6ZJWleY8Dbytwxw8UyXVe2r6635qr8DsvTzNd83u5uQaG0g4/u6Ob4bS4RIJwtTKcdvi13b18+JlJjlXrHCxm+KltnQynHWbrHs8v1nh6ocpY1aOuDSlbsTmT4IZiit251JqrVZIpxdbr0my9Ls2t76LZT+gSYoA/Pz7PH706x4Kro5YYW7IJPryrhz2FC5tCLgivBfIbWhAEQbjq6ExYfGR3L7/y9AQvleskLCg1PD5xZI5NmQSv625VFwVtiFgtsa4UJNOKZNom2wE9ww7X3e2XGtarmuMv1Dj+rB/EPPFCnd7NDm/6V91cczCNusRDHz57aoE/eXWOmmewFDS0YW9Hkp/a1kVXQobvCIIA13Wk+dCuHv79C1MsupqhjMNb+/N0Jy3q2jBR83hpscZ4zaXqGbKOYlMmwc5ckt6kTeJsqqPgdPdQgu6hBAfuK+A1DPWqJlO49Hbo4ekl/tNLM5yoNkgoP1FVTCh+bkcXd/ZkL/nnC4KwsbmhmObnr+niM6cW+cjuHvbkU3xnvsKDJxZ4cqHKRNWjpv0xYtoYso7FcNrhtq4M7x7uYF8hee77uddA3v2Hh2f55LESFa0j29ed9NWlB9egpBeEjYAELQVBEISrkq3ZBL+6u4dff26SsapLIWFzb3+ea3IJjIHJuscr5Ronqi6LriahYCDtcE0uyUjaIWOfJbMebEaTGYtrDmS45oC/OVwqeWQK1kVvsN5OwxgePLHAx4/MRRNyXeNPUf/FHd1c1yHZdUEQmrylP8/xSoO/PrXIr+7u5e7eLCcqLp8bW+AbM8u8slSn7AZOO4bOhM1oPsWb+rLc359n4BzVinZCkXkNEid/O17mYy9PM1P3Iqc9ZSs+uK2bdw1JLzdBEHzuH8hzsDPDUNrh7ybLfOLIHK8sNTD47SSy0b7Pb7NzvNLgVLXBC4t1fvGabm7t3jhBwKm6y+8fnuNL42Xq2uAEti9jKz6yu487JFkjXEZI0FIQBEG4arm1K8PPX9PNf3llln+1pZMf3lxkvqH59MkSX5lc4oVyjdm6FznpaUuxPZfk9u4s7xwsMJpPRCXXayV3iZqsx6l6hj87Ns+fHvMVlrbyy4G6kza/fE0Pb5CBE4IgtGEreP+mIrd0ZbixmOY78xX+6NV5vj1XwQ2c3kzMaa96hsfnK7xQrvFkqcq/3t7N7nxyXf8OcZY8zV+eXOCPj85TaniB026wlOKnt3Xxvk3F9X5EQRA2ELZSDKUdHp1d5hNH5ji0VMdRCrWCJFJBFAh8aqHK7x+e5aPJPnZtABv495NLfOLILC8vNUARJa27kza/uquHt/TLHlC4vJCgpSAIgnBV87aBPH0pm9u7shxZrvPHr87zlaklv1l5m5NugJfLdV5dbvD4XIWf2NbJff359Xz805isufzJq/P85dgCrg4DloasbfMrO7u5b2BjPa8gCBuHDsfixmKa5xdrfPzwLI/NVbEttWL5t6Ugqfzg5T9MLqENfGh3b8vgivXiyVKV/35snq9PL+MaP7jgGb8X3U9v6+ZHNhexZfKOIAhtTNc9/ueJBV4s19c0bMdSkFCK78xX+eSxeT68u3ddBttoAxM1lz8+Os8XxxapahO1NGoYw2guxUdGe7mpU4YvCpcf67+rEARBEIR1xFGK27uyTFRd/ujIHP9rooyHP7CnHQUkgunbzy3W+L1XZknbFndtkDKbL02U+dSJEk+Walj4qgHXGLqTNr+ys4e3D8rgHUEQzsx8w+Mvjpd4dM6fpHs2t91WoFB8ZWqJkYzDz+/oIb1OEcElV/OpEwt85uQCY9UGtqWwle+0D6YcfnlnD2/tz6/an1gQhKub5xdqPFWqci5zEf29IXy3VOVYpcG+13i4zUTN5R8ml/izY/NM1Fxs5ds9bcBgeENPlg/v6mVLNvGaPpcgXCwkaCkIgiBc9dS14a/GFvnSxBKgzrpZVfhBzaPLDX7/lVm2ZBJsW8fN4ImKy8ePzPLw9DJzDS8KNNS1YX8hxa/u7uWgZNcFQVgDL5XrfHuugoVZsSxyJSwFysA3Zyt8/3CDnbnXtkSypg1fn17mj47O8XK5jmeaCSZXw95Civ99tI/ri9LLVxCElalrw6NzFcZrbqx/5dqwleLIUoPH56vsKaR4LbSWE1WXb81V+NTxBZ5erJKyFE7QsqimDXnb4m2DBX5lZ8+6qD8F4WIhQUtBEAThqme85vLVqSU8Y84+BTeGoxTHlht8Y2aZbdnXvj/aXN3js6cW+OzJBSZqXhRM1fgTz9/cl+Pf7uplU0Z+3QuCcHYa2vCt2QrHK41zdtoTluJQuc7j89XXLGi55GmeWazzp0fm+PZ8BfCTSrbC78NpKe7syfDv9vbRnxI7KAjC6ix7hmOVRhT4OxfCK44u16l5hswlVJs/v1jjucU6fz9R5pHZZSwF6WDv6hlwjeH6jjQPDBd430jHazGkXBAuKfLbWxAEQbjqeWKuyvOLtRVLws+EpWDZ03xtepkHhgqvWSZ7uu7x8Mwyf3Z0nleX61EpkMEPOmQdi+8fKvAL13Sffcq5IAhCwLKneXW5fl5OO4AGDi/VqWoTOdEXG88Ypmoer1Ya/M3YIl+aKKMNkULeMwbPwJZsgvv68/zM9q5L9iyCIFw5uMaw4HrnHeSzlN+iwjOGsmuYqHnsyCUuOGhY04YjS3WeXvCHnr1YrvNyuU5dm5ZWHMueZiDl8J6RIm8fyLHjNVa8C8KlQoKWgiAIwlWNZwwvlmsX1ONspu5yqupe0sm5y55mvOrxfLnGp0+UeGK+SlI1S4FcbVBKsa8jxbuHO3jfSMclexZBEK5MGgbmGhfgtAMLDQ9XG2rG74/Zl7axLtBtb2jDRM3llaU6zy7UeHy+ypOlGhWtg5JIf13F0xQTNvf25XnvSIHrimlRGQmCsCZCxaI5z+sNvuLcUoqnShU+dmiWnpTNlkyCfYUko4UUA2mHTsfCXiUxVNeG+YbHyarL8ws1XijXOFV1ma17jFVd5hseCaVwLBUFLF3jP/Fb+/P8yJZODhTTMmhMuKKQoKUgCIJwVWOA6brUvuFFAAATFklEQVS75t5t7SjlZ8HLrgfARNWjI6EuisJxydUcrzR4qVznyVKVJ+arvFSuY1vNUiADLLuaHbkkbx3I8/3DBbZkpNm6IAjnjsKfhHu+GPzebpaCZxZq/OGrswynHbZkElyTT7Ijm6QnZZM/g33UwGJDM1FzObxU5/BynePLLmPVBoeXGkzUXJLBRPPQDtaNAQO3dWf5wU0d3NmTPefydkEQrm7SlsVgKoGmcl7X62DgV8pSHK00eLFcw5ThMaXIOxY5R5G0LBwFKUvRmbDpTtp4xjBd91hsaBrG0NAm2FdqljyNZ4iGK4Z2zeDbSgzc25fnnUN5DhQzFBNi94QrDwlaCoIgCFc951oW3o6lIGFZLDQ0//XILPMNj23ZBNtzSXZkE4xkEhQT1hlLLmvaMN/QHF+uc3i5wavLdU5VXE5UGryy1KDiaZJ2M7NugKrW5CyL94x08J7hAjcWMzIVVxCE8yZtKQZSDh5wPqkPbWAg5ZC0FIeX6/zzTAWDIW1Z9CRtupI2WVuRtBRp26LTselMWrjaMNfwKLuaijbUtWHJ1czWPWbrHq4x2MpXVMbbcHjG4Bq4syfLff157uzJSO9KQRDOi4yt2FdIkrUUHpxTKlsb6Es57A9Ujt+bq0UJHICyq1l0TYuK08I/b2hO+g5RKJSi2f7HNNfZCroTNm/uz/G+kSIjGT9QKghXKvJbXRAEQbiqsVCMpBNoDPZ5qC21gaxt0Z+0maq7PFGq8MJijaSy6EpYdCUdOhKKlGWRsvxse2fCJusoSnXNguex5GpqQWa91PCYrWsWghJNOygDyjnN7HpDG7K2xTuGi9zbl+PmrrSoigRBuGAytsWeQpL0hF8iea5Oe3fSYl9HCkcpnlmokbJVpGKfrrtM1lwMRK65o8C2FMY0A5CK5pcV2D8n9iQ6eLC8bXF3X5Z3D3WwI5egmLAvxo9AEISrFAXc2p1hVyHFM6XqOQ1mdI1hXyHFnnwSA7y6XKcraVPz/ESMa4xv11Tzs8IgZPzzw5faGIwJS9Yt0o4iqRT9aZv7B/K8Y7BAl9g84SpBgpaCIAjCVY2lYF9HioJtUdHmnJx0g6/S3JNPMpB2eHKyzGJDk7VtbAVLnmGxUscs+2U8fumkP3XcUuBq8DDooPQn3NBa+Cqk6HNi0YOhlMO7hvO8pS/PUNqRQTuCIFw0LAW3d2fZmSvz/GLtnJ32vYU0+wopAJ5eqJKxLDxjqGvtB0GVb+uINeTQOvhsFEkVOu3+nzowfo7ll607StGTsvi+/gLvHCowmHakZ6UgCBeNoXSC+wfyHF2uU3b1moaSuRqG0wneMZinN+mnvz9+YIhD5QaHluq8UK5xfLnBoqtpBEryhgmOQdQybHmRUP7RsRQZSzGYdrgml2B3PsXufJLN0v5HuAqRoKUgCIJw1XOgM8ONnWm+Pr18Tk66NtCVsLijJwvAoXKdZc+QsRQNY/ACx1spcGJOuq8q8uOQDgpUsyzI4CuOnJijbluwJ5/i3UMd3NWXI2MpLqDtnCAIwqpsyiR4S3+eY5UGy94anXZjGEg5fN9gISrP/sSNQ7xYrvNiuc7zizX/fq7fs83V/jWu8ZXjKkjmOLGjbSlSlqI/5bA7n2RP3h9ksT2blDYYgiBcElKW4oHBAmOVBn99aoFlbVbt8xtWvvQmbX5gpMCb+nLRgJ1iwubmLpubu9LR2vGqy4LrUXYNS67HQkOz6GkspSjYFlnHIm/7lTVZx4r6YwrC1Y4ELQVBEISrnoJt8fbBAi8u1pmsu2saROFPiYS7+3Lc3JUB4Me3dvLG3iwvlhu8uFjj0FKdubpH3RhcHXwZ/ICmocVBdyzVLAW3FFtySUbzCUbzKfYWUvQkpQxIEIRLT8pSvGe4wFi1wd+Ml6lpfUab2DCGLsfi3cMF3tKXi6bW9qYcelNOlNSpepqpmkfJ9VhsGMqex3zDY9HzW3MUbEU+YUdOe96xGUzb5ERNLgjCa0gxYfH/t3d/sXXW5x3AH//NIbYTu8xJXMZsuhFvNSVTUoy2aXZgE5qaLHSTnDVS2jEpQQpoF5nkXqKI3tXScoEKEkFaNCJliqVNsIShUIYddZMS6rCwGslBSLYEOMR0dTg57MT541045k8GNH/e4/c953w+t7Gf89zEes/3/T3P79G72qKtoS5eOns+3s5fiNqruyUXh7gvX11psW5lLr7bsSK+s6b5K9f01ERER64+OsQvcMP8rwGg6tXWRDzY3hRnipfiH6Zm49yly1Ff8+X3iV+eX3jz/gdfWx4/+K2Vn+wVuq2uNu5ZkYt7VuQioiXmI+J/LlyKX15cuBUyf3k+8hcXvrRfuBKx/OqOy+b6umiur4nm+rpoaaiNO4w8Ailqa6yLXd9oi6811sXLH5yPdwpzn1wqURM1MX91rcXl+fn45opcPNzRHFvWtHzukpxr5epq487ltXHnTV3xA7B02hrq4q87W+PbbbfFazOFmDg/F+8VL8WFy1dieX1t3HlbQ/xec2M8tKopvtHceF0n0oGbI7QEgFi4Nfd7v7kimutr41/ez8f4R8W4Egs7KBfjyyuxsIPojlxD/OmqpvirO1bEXcsbv7RmTUTcvqw+bnebLVBmfqOxPv6msy1625bHqzOFePv8hXi/eCkuXJ6P5fULF5h1tzTGn61qjt9pboxGY4xABVlWWxPrW3PRs2JZfHTxSvzv5SsLUzK1CxcwrqivvaGVQsDN8S0KAK5aXlcbf9HREveuyMWrM4UY/6gY7xYvxflLV6KhJmL1svq4q6kxHmxfHutbb4uWrzhVBFDultfVxH1tufjWymVxbu5KfHz5SlyK+aivqYnmutpY2VArrAQq2rLammhfVhcR1vRAGoSWAPAZDbU18bstjfHbzQ3x0dyVOH954eKImlgINVc21MZtdbXGt4GqkautiVzOl3YAYGkJLQHgCzTU1MTty+ridl/SAQAAlpy5NgAAAAAgU5y0BAAAADJrzbf+Mu0WgBQ4aQkAAAAAZIqTlgCUHW/bgWrkbx9Qbc789z+n3QKQIictAQAAAIBMcdISgLLhbTtQjfztq1yH3tx7S7+/9d7dCXUCANnjpCUAAAAAkClCSwAAAAAgU4SWAAAAAECmCC0BAAAAgEwRWgIAAAAAmSK0BAAAAAAyRWgJAAAAAGSK0BIAAAAAyBShJQAAAACQKUJLAAAAACBThJYAAAAAQKYILQEAAACATBFaAgAAAACZUp92AwAAAHxq7uJcvDXxi4iI+P171qfcDQCkQ2gJAACQEXMX5+LnbxyP96bfjYiImQ/PRv8fPRiNDY0pdwYAS8t4OAAAQAbMfPhBvDLy8ieBZUTE7Llfxb+98q8x8+EHKXYGAEtPaAkAAJCyt9+ZiP888bP4+OPC//u3uYtzMfIf/x5vvzORQmcAkA7j4QAAAClZ3F95PYHkf/3iZMz88mz8Ye8fL0FnAJAuJy0BAABSUPi4ED9/4/gNnaB8b/rdeGXk5Sh8wYlMAKgkQksAAIAlNj45Fj+9Zn/l9Zo996v46cjLcWJitASdAUA2CC0BAACW0JHjB2No+Icxd3HupmvMXZyLoUODcWj02QQ7A4DssNMSAABgCRSK+dh/dG+MnDqcWM3hY8/FW1NvxJ4fPJNYTQDIAictAQAASmzyzOnY8/yuRAPLReNTYzG4b3tMnjmdeG0ASIvQEgAAoITGJ8diz/O7ShoqTp45HYP7tttzCUDFEFoCAACUyP6je2No+IdRKOaX5PPsuQSgUggtAQAAElYo5mPo0GAcOX5wyQLLRcPHnovBfduX/HMBIElCSwAAgARlYVR78szpePyp79pzCUDZEloCAAAk5LVTh2PP87tiZnY67VaiUMzH4L7tceT4wbRbAYAbVp92AwAAAJXigXWb44F1m7/yZw6NPhvDx55L5PMG+nbE1v5HE6kFAFnipCUAAAAAkClCSwAAAAAgU4SWAAAAAECmCC0BAAAAgEwRWgIAAAAAmSK0BAAAAAAyRWgJAAAAAGSK0BIAAAAAyBShJQAAAACQKUJLAAAAACBThJYAAAAAQKYILQEAAACATBFaAgAAAACZIrQEAAAAADKlZn5+fj7tJgBu1aE399707269d3eCnQAAXJ9beX6J8AwDQGVz0hIAAAAAyBShJQAAAACQKUJLAAAAACBThJYAAAAAQKYILQEAAACATBFaAgAAAACZIrQEAAAAADJFaAkAAAAAZIrQEgAAAADIFKElAAAAAJApQksAAAAAIFOElgAAAABApggtAQAAAIBMEVoCAAAAAJkitAQAAAAAMkVoCQAAAABkitASAAAAAMgUoSUAAAAAkClCSwAAAAAgU4SWAAAAAECmCC0BAAAAgEypT7sBAACAavLaqcMxM/t+RNut1Tk0+mxERGztfzSBrgAgW4SWQNl6ZOhPolDMR0TEwMPbbrrOwI96IyJi/+Cr0ZRrSaQ3AIAvM3rqSIxPjd3S80tExPCx5yJCaAlAZRJaAgAALKHChYWXrsMvHEy5EwDILqElUBE89AMA5WJxUiQJ7a0didUCgCxxEQ/AVTOz02m3AABUuEIxn+gzh9U2AFQqoSVQtpI+WTA+NZZoPQCAayX9krRpmdASgMoktATKVtIP6ZMfvJ1oPQCAayX9ktR4OACVSmgJlK2uNWsTrff6xGii9QAArvXW1MlE6xkPB6BSCS2BstW5+u5E6xWK+Zg8czrRmgAAiwrFfIwnHFp+s3N9ovUAICuElkDZWrUy+XGoIyf+KfGaAAAREeNTJxO9OTwiomt1spMnAJAVQkugbCU9Hh4RMXLqcJx1izgAUAIvHU/25WhTriVW2WkJQIUSWgJlqynXUpLg8ukXn0y8JgBQ3cYnxxK/hKfHaDgAFUxoCZS1ns4NidccnxqLEy7lAQAS9FIJVtAkvd8bALJEaAmUtYG+HSWp+/SLT7qUBwBIxImJ0ZK8EN247s8TrwkAWSG0BMpaU64l2kuwy6lQzMePhwcTX5YPAFSXQjEfw8f2JV63a81a+ywBqGhCS6Ds9XZvLEndmdnp2PP8LsElAHDT9h/dW5LpjfvW9iVeEwCyRGgJlL1SjYhHREyeOR2D+7YbFQcAbtiR4wdj5NThktQ2Gg5ApRNaAmWvKdcSG9dtLln9mdnpGNy3PV4r0ZcOAKDyHDl+MIaPPVeS2r3d/UbDAah4QkugIgz07Sz5Zzz94pPxkxefjLOz0yX/LACgfC0GlqVaMdNfwpe1AJAVQkugIqxq7Yje7v6Sf87IqcPx+FMPx/6je4WXAMDnFIr52H90b+w/urdkgWV7a0f0dK4vSW0AyJKa+fn5+bSbAEjC2dnpePyph5f0M3u7+6N/3eYlCUwBgOwanxyL/a+U5tKdz3rkod2x6f5tJf0MAMgCoSVQUX7y4pMlW3j/6/R290fn6rujp3NDtLd+PZpyzdGUa0mlFwBgaYxPjsXIm0eW5PmjvbUjhnYe8HwBQFUQWgIVpVDMx+C+7TGTodHtgb4dsbX/0bTbAAASUCjmY2Z2Ok5MjMTrp4+V/GTlZz225Yl4wD5LAKpEfdoNACSpKdcSjzz0dzF0aDDtVgCACrDnH3dFREThwsKOypnZ6ZLtq/wqvd39AksAqorQEqg4vd390dvdHycmRtNuBQAoc+NTY2m3EE25lhjo25l2GwCwpIyHAxWpUMzHnud3LenI1pcZ6NsR0VZIuw0A4BYNv3Awlc+1agaAalSbdgMApdCUa4nBgaG02wAAuCU9nRvcFg5AVRJaAhVrVWtH7Pn+M2m3AQBwUxZ2de92WzgAVUloCVS0nq4NgksAoOw05VrisS1PRNeatWm3AgCpEFoCFU9wCQCUm4G+HdHb3Z92GwCQGqElUBUElwBAudh0/zZ7LAGoekJLoGoILgGArNt0/7Z45KHdabcBAKkTWgJVpadrQwztPGA/FACQOQJLAPiU0BKoOl1r1sbQzgOxcd3mtFsBAPjklnCBJQB8SmgJVK3HtzwRj215Iu02AIAqtnhLuB2WAPB5Qkugqj2wbnPsH3zVqUsAYMl1rVkbP955wC3hAPAFhJZA1WvKtcTjW56IoZ0Hor21I+12AIAKtzgOvuf7z8Qqzx4A8IXq024AICu61qyNp//2hTgxMRr7j/59zMxOp90SAFBhejo3xCMP7XYpIAD8GkJLgGv0dvdHb3d/nJgYjdcnRmPk1OG0WwIAylx7a0ds6v1ebFy3OZpyLWm3AwCZVzM/Pz+fdhMAWXfk+MF4feJYjE+N3fDvDvTtiGgrlKArAGApDb9w8IZ/p6dzQ9zX3SesBIAb5KQlwHXYdP+22HT/tigU8zFy6nC8NXUyxqdORqGYT7s1ACBjmnIt0bV6bQz07YiuNWuFlQBwE5y0BLgFhWI+xqdOxuSZiZg5dyZmZqfj7Ln34+Pi+U8CzYG+HbG1/9GUOwUAbsbAj3qv6+eaci3R07k+vn11zYygEgBujdASAADgS3w2tFwMIttbO2LVyo5ob/16dK6+O+5avdbFOgCQsP8DOWEuLrffAK0AAAAASUVORK5CYII=;" vertex="1" parent="1">
          <mxGeometry x="123" y="135" width="631.88" height="243.22" as="geometry" />
        </mxCell>
        <mxCell id="YBe8iFWMWS4oxloJTXyG-6" value="GIT repos" style="text;html=1;strokeColor=none;fillColor=none;align=right;verticalAlign=middle;whiteSpace=wrap;rounded=0;fontSize=12;" parent="1" vertex="1">
          <mxGeometry x="72" y="199" width="47" height="41" as="geometry" />
        </mxCell>
        <mxCell id="4Fkn1ktW__FNTYwrnasl-9" value="&lt;b&gt;&lt;i&gt;main&lt;/i&gt;&lt;/b&gt; branch only" style="text;html=1;strokeColor=none;fillColor=none;align=center;verticalAlign=middle;whiteSpace=wrap;rounded=0;fontSize=12;" parent="1" vertex="1">
          <mxGeometry x="153" y="125" width="100" height="30" as="geometry" />
        </mxCell>
        <mxCell id="4Fkn1ktW__FNTYwrnasl-11" value="&lt;b&gt;&lt;i&gt;Any &lt;/i&gt;&lt;/b&gt;branch" style="text;html=1;strokeColor=none;fillColor=none;align=center;verticalAlign=middle;whiteSpace=wrap;rounded=0;fontSize=12;" parent="1" vertex="1">
          <mxGeometry x="153" y="284" width="100" height="30" as="geometry" />
        </mxCell>
        <mxCell id="4Fkn1ktW__FNTYwrnasl-20" value="Sprint pipeline" style="text;html=1;strokeColor=none;fillColor=none;align=center;verticalAlign=middle;whiteSpace=wrap;rounded=0;fontSize=12;fontStyle=1" parent="1" vertex="1">
          <mxGeometry x="291" y="382" width="233" height="30" as="geometry" />
        </mxCell>
        <mxCell id="4Fkn1ktW__FNTYwrnasl-21" value="Release Pipeline" style="text;html=1;strokeColor=none;fillColor=none;align=center;verticalAlign=middle;whiteSpace=wrap;rounded=0;fontSize=12;fontStyle=1" parent="1" vertex="1">
          <mxGeometry x="423" y="81" width="134" height="26" as="geometry" />
        </mxCell>
        <mxCell id="e--GyAv-D-GmNl2_TVwn-1" value="Rapid deployment to lower environments" style="text;html=1;strokeColor=none;fillColor=none;align=center;verticalAlign=middle;whiteSpace=wrap;rounded=0;fontSize=12;fontStyle=2" parent="1" vertex="1">
          <mxGeometry x="286" y="408.22" width="238" height="30" as="geometry" />
        </mxCell>
        <mxCell id="e--GyAv-D-GmNl2_TVwn-2" value="&lt;p style=&quot;margin-top: 0pt; margin-bottom: 0pt; margin-left: 0in; direction: ltr; unicode-bidi: embed; word-break: normal;&quot;&gt;Controlled deployment of verified versions&lt;/p&gt;" style="text;html=1;strokeColor=none;fillColor=none;align=center;verticalAlign=middle;whiteSpace=wrap;rounded=0;fontSize=12;fontStyle=2" parent="1" vertex="1">
          <mxGeometry x="354" y="105" width="268" height="30" as="geometry" />
        </mxCell>
        <mxCell id="QVPC673FPpkqxWNrho3z-10" value="&lt;span style=&quot;color: rgb(0, 0, 0); font-family: Helvetica; font-size: 12px; font-style: normal; font-variant-ligatures: normal; font-variant-caps: normal; font-weight: 400; letter-spacing: normal; orphans: 2; text-indent: 0px; text-transform: none; widows: 2; word-spacing: 0px; -webkit-text-stroke-width: 0px; background-color: rgb(251, 251, 251); text-decoration-thickness: initial; text-decoration-style: initial; text-decoration-color: initial; float: none; display: inline !important;&quot;&gt;DEV&lt;/span&gt;&lt;br style=&quot;border-color: var(--border-color); color: rgb(0, 0, 0); font-family: Helvetica; font-size: 12px; font-style: normal; font-variant-ligatures: normal; font-variant-caps: normal; font-weight: 400; letter-spacing: normal; orphans: 2; text-indent: 0px; text-transform: none; widows: 2; word-spacing: 0px; -webkit-text-stroke-width: 0px; background-color: rgb(251, 251, 251); text-decoration-thickness: initial; text-decoration-style: initial; text-decoration-color: initial;&quot;&gt;&lt;span style=&quot;color: rgb(0, 0, 0); font-family: Helvetica; font-size: 12px; font-style: normal; font-variant-ligatures: normal; font-variant-caps: normal; font-weight: 400; letter-spacing: normal; orphans: 2; text-indent: 0px; text-transform: none; widows: 2; word-spacing: 0px; -webkit-text-stroke-width: 0px; background-color: rgb(251, 251, 251); text-decoration-thickness: initial; text-decoration-style: initial; text-decoration-color: initial; float: none; display: inline !important;&quot;&gt;environment&lt;/span&gt;" style="text;whiteSpace=wrap;html=1;align=right;" vertex="1" parent="1">
          <mxGeometry x="375" y="282" width="73" height="42" as="geometry" />
        </mxCell>
        <mxCell id="QVPC673FPpkqxWNrho3z-11" value="&lt;span style=&quot;color: rgb(0, 0, 0); font-family: Helvetica; font-size: 12px; font-style: normal; font-variant-ligatures: normal; font-variant-caps: normal; font-weight: 400; letter-spacing: normal; orphans: 2; text-indent: 0px; text-transform: none; widows: 2; word-spacing: 0px; -webkit-text-stroke-width: 0px; background-color: rgb(251, 251, 251); text-decoration-thickness: initial; text-decoration-style: initial; text-decoration-color: initial; float: none; display: inline !important;&quot;&gt;Staging environment&lt;/span&gt;" style="text;whiteSpace=wrap;html=1;align=right;" vertex="1" parent="1">
          <mxGeometry x="531" y="281" width="68" height="44" as="geometry" />
        </mxCell>
        <mxCell id="QVPC673FPpkqxWNrho3z-12" value="&lt;span style=&quot;color: rgb(0, 0, 0); font-family: Helvetica; font-size: 12px; font-style: normal; font-variant-ligatures: normal; font-variant-caps: normal; font-weight: 400; letter-spacing: normal; orphans: 2; text-indent: 0px; text-transform: none; widows: 2; word-spacing: 0px; -webkit-text-stroke-width: 0px; background-color: rgb(251, 251, 251); text-decoration-thickness: initial; text-decoration-style: initial; text-decoration-color: initial; float: none; display: inline !important;&quot;&gt;Production&lt;/span&gt;&lt;br style=&quot;border-color: var(--border-color); color: rgb(0, 0, 0); font-family: Helvetica; font-size: 12px; font-style: normal; font-variant-ligatures: normal; font-variant-caps: normal; font-weight: 400; letter-spacing: normal; orphans: 2; text-indent: 0px; text-transform: none; widows: 2; word-spacing: 0px; -webkit-text-stroke-width: 0px; background-color: rgb(251, 251, 251); text-decoration-thickness: initial; text-decoration-style: initial; text-decoration-color: initial;&quot;&gt;&lt;span style=&quot;color: rgb(0, 0, 0); font-family: Helvetica; font-size: 12px; font-style: normal; font-variant-ligatures: normal; font-variant-caps: normal; font-weight: 400; letter-spacing: normal; orphans: 2; text-indent: 0px; text-transform: none; widows: 2; word-spacing: 0px; -webkit-text-stroke-width: 0px; background-color: rgb(251, 251, 251); text-decoration-thickness: initial; text-decoration-style: initial; text-decoration-color: initial; float: none; display: inline !important;&quot;&gt;environment&lt;/span&gt;" style="text;whiteSpace=wrap;html=1;align=right;" vertex="1" parent="1">
          <mxGeometry x="681" y="282" width="70" height="38" as="geometry" />
        </mxCell>
        <mxCell id="QVPC673FPpkqxWNrho3z-13" value="Pipelines" style="text;html=1;strokeColor=none;fillColor=none;align=center;verticalAlign=middle;whiteSpace=wrap;rounded=0;fontSize=12;" vertex="1" parent="1">
          <mxGeometry x="290" y="203" width="58" height="30" as="geometry" />
        </mxCell>
      </root>
    </mxGraphModel>
  </diagram>
</mxfile>
